<svg version="1.1" viewBox="0.0 0.0 729.010498687664 307.7769028871391" fill="none" stroke="none" stroke-linecap="square" stroke-miterlimit="10" xmlns:xlink="http://www.w3.org/1999/xlink" xmlns="http://www.w3.org/2000/svg"><clipPath id="p.0"><path d="m0 0l729.0105 0l0 307.77692l-729.0105 0l0 -307.77692z" clip-rule="nonzero"/></clipPath><g clip-path="url(#p.0)"><path fill="#000000" fill-opacity="0.0" d="m0 0l729.0105 0l0 307.77692l-729.0105 0z" fill-rule="evenodd"/><path fill="#000000" fill-opacity="0.0" d="m16.629921 0.38582677l701.8582 0l0 301.85825l-701.8582 0z" fill-rule="evenodd"/><path stroke="#000000" stroke-width="1.0" stroke-linejoin="round" stroke-linecap="butt" d="m16.629921 0.38582677l701.8582 0l0 301.85825l-701.8582 0z" fill-rule="evenodd"/><path fill="#000000" fill-opacity="0.0" d="m49.065617 25.813648l170.33072 0l0 91.37007l-170.33072 0z" fill-rule="evenodd"/><path stroke="#000000" stroke-width="1.0" stroke-linejoin="round" stroke-linecap="butt" d="m49.065617 25.813648l170.33072 0l0 91.37007l-170.33072 0z" fill-rule="evenodd"/><path fill="#000000" d="m106.13686 55.77806l0 5.03125l0.25 0q1.171875 0 1.703125 -0.734375q0.53125 -0.75 0.671875 -2.1875l0.34375 0l0 6.46875l-0.34375 0q-0.109375 -1.0625 -0.46875 -1.734375q-0.34375 -0.671875 -0.8125 -0.90625q-0.453125 -0.234375 -1.34375 -0.234375l0 3.484375q0 1.015625 0.078125 1.25q0.09375 0.234375 0.328125 0.375q0.25 0.140625 0.78125 0.140625l0.734375 0q1.734375 0 2.765625 -0.796875q1.046875 -0.796875 1.5 -2.4375l0.34375 0l-0.5625 3.921875l-10.671875 0l0 -0.34375l0.40625 0q0.546875 0 0.875 -0.1875q0.234375 -0.125 0.359375 -0.4375q0.09375 -0.21875 0.09375 -1.140625l0 -8.125q0 -0.84375 -0.046875 -1.03125q-0.078125 -0.328125 -0.328125 -0.5q-0.34375 -0.25 -0.953125 -0.25l-0.40625 0l0 -0.34375l10.34375 0l0 3.65625l-0.359375 0q-0.25 -1.328125 -0.734375 -1.90625q-0.484375 -0.59375 -1.359375 -0.875q-0.5 -0.15625 -1.90625 -0.15625l-1.28125 0zm11.474823 3.125l0 1.09375q0.65625 -0.703125 1.25 -1.015625q0.609375 -0.328125 1.296875 -0.328125q0.828125 0 1.375 0.453125q0.546875 0.453125 0.734375 1.140625q0.140625 0.515625 0.140625 2.0l0 3.3125q0 0.984375 0.171875 1.234375q0.1875 0.234375 0.75 0.296875l0 0.328125l-4.3125 0l0 -0.328125q0.484375 -0.0625 0.703125 -0.40625q0.140625 -0.21875 0.140625 -1.125l0 -3.78125q0 -1.0625 -0.09375 -1.328125q-0.078125 -0.265625 -0.28125 -0.421875q-0.1875 -0.15625 -0.421875 -0.15625q-0.78125 0 -1.453125 1.125l0 4.5625q0 0.953125 0.171875 1.21875q0.1875 0.25 0.671875 0.3125l0 0.328125l-4.3125 0l0 -0.328125q0.53125 -0.046875 0.765625 -0.34375q0.15625 -0.203125 0.15625 -1.1875l0 -4.8125q0 -0.96875 -0.1875 -1.203125q-0.171875 -0.234375 -0.734375 -0.3125l0 -0.328125l3.46875 0zm10.281967 -3.125l0 3.125l2.0156174 0l0 0.90625l-2.0156174 0l0 5.25q0 0.734375 0.0625 0.953125q0.06249237 0.21875 0.23436737 0.359375q0.171875 0.125 0.328125 0.125q0.59375 0 1.109375 -0.90625l0.28125 0.203125q-0.734375 1.75 -2.3906174 1.75q-0.8125 0 -1.375 -0.453125q-0.5625 -0.453125 -0.71875 -1.015625q-0.09375 -0.3125 -0.09375 -1.671875l0 -4.59375l-1.109375 0l0 -0.328125q1.15625 -0.8125 1.953125 -1.703125q0.8125 -0.890625 1.40625 -2.0l0.3125 0zm6.8376694 2.875q1.109375 0 2.0625 0.578125q0.96875 0.5625 1.453125 1.625q0.5 1.046875 0.5 2.3125q0 1.8125 -0.90625 3.03125q-1.125 1.46875 -3.078125 1.46875q-1.921875 0 -2.96875 -1.34375q-1.03125 -1.34375 -1.03125 -3.125q0 -1.828125 1.0625 -3.1875q1.0625 -1.359375 2.90625 -1.359375zm0.046875 0.640625q-0.46875 0 -0.8125 0.359375q-0.328125 0.34375 -0.4375 1.375q-0.09375 1.03125 -0.09375 2.875q0 0.96875 0.125 1.828125q0.109375 0.640625 0.4375 0.984375q0.328125 0.328125 0.734375 0.328125q0.421875 0 0.6875 -0.21875q0.359375 -0.3125 0.46875 -0.875q0.1875 -0.859375 0.1875 -3.5q0 -1.546875 -0.171875 -2.125q-0.171875 -0.578125 -0.515625 -0.84375q-0.234375 -0.1875 -0.609375 -0.1875zm8.796875 -0.390625l0 1.921875q0.859375 -1.3125 1.484375 -1.734375q0.640625 -0.4375 1.234375 -0.4375q0.515625 0 0.8125 0.3125q0.3125 0.3125 0.3125 0.890625q0 0.609375 -0.296875 0.953125q-0.296875 0.328125 -0.71875 0.328125q-0.484375 0 -0.84375 -0.3125q-0.34375 -0.3125 -0.40625 -0.34375q-0.09375 -0.0625 -0.21875 -0.0625q-0.265625 0 -0.5 0.203125q-0.375 0.3125 -0.5625 0.890625q-0.296875 0.875 -0.296875 1.9375l0 1.96875l0.015625 0.5q0 0.53125 0.0625 0.671875q0.109375 0.25 0.3125 0.359375q0.21875 0.109375 0.734375 0.140625l0 0.328125l-4.59375 0l0 -0.328125q0.546875 -0.046875 0.734375 -0.296875q0.203125 -0.265625 0.203125 -1.375l0 -4.71875q0 -0.71875 -0.0625 -0.921875q-0.09375 -0.25 -0.265625 -0.375q-0.171875 -0.125 -0.609375 -0.171875l0 -0.328125l3.46875 0zm8.233658 0l0 1.09375q0.65625 -0.703125 1.25 -1.015625q0.609375 -0.328125 1.296875 -0.328125q0.828125 0 1.375 0.453125q0.546875 0.453125 0.734375 1.140625q0.140625 0.515625 0.140625 2.0l0 3.3125q0 0.984375 0.171875 1.234375q0.1875 0.234375 0.75 0.296875l0 0.328125l-4.3125 0l0 -0.328125q0.484375 -0.0625 0.703125 -0.40625q0.140625 -0.21875 0.140625 -1.125l0 -3.78125q0 -1.0625 -0.09375 -1.328125q-0.078125 -0.265625 -0.28125 -0.421875q-0.1875 -0.15625 -0.421875 -0.15625q-0.78125 0 -1.453125 1.125l0 4.5625q0 0.953125 0.171875 1.21875q0.1875 0.25 0.671875 0.3125l0 0.328125l-4.3125 0l0 -0.328125q0.53125 -0.046875 0.765625 -0.34375q0.15625 -0.203125 0.15625 -1.1875l0 -4.8125q0 -0.96875 -0.1875 -1.203125q-0.171875 -0.234375 -0.734375 -0.3125l0 -0.328125l3.46875 0zm10.906967 -0.25q1.109375 0 2.0625 0.578125q0.96875 0.5625 1.453125 1.625q0.5 1.046875 0.5 2.3125q0 1.8125 -0.90625 3.03125q-1.125 1.46875 -3.078125 1.46875q-1.921875 0 -2.96875 -1.34375q-1.03125 -1.34375 -1.03125 -3.125q0 -1.828125 1.0625 -3.1875q1.0625 -1.359375 2.90625 -1.359375zm0.046875 0.640625q-0.46875 0 -0.8125 0.359375q-0.328125 0.34375 -0.4375 1.375q-0.09375 1.03125 -0.09375 2.875q0 0.96875 0.125 1.828125q0.109375 0.640625 0.4375 0.984375q0.328125 0.328125 0.734375 0.328125q0.421875 0 0.6875 -0.21875q0.359375 -0.3125 0.46875 -0.875q0.1875 -0.859375 0.1875 -3.5q0 -1.546875 -0.171875 -2.125q-0.171875 -0.578125 -0.515625 -0.84375q-0.234375 -0.1875 -0.609375 -0.1875z" fill-rule="nonzero"/><path fill="#000000" d="m103.8611 77.05931l0 3.34375l-0.328125 0q-0.28125 -1.15625 -0.640625 -1.65625q-0.359375 -0.5 -0.984375 -0.8125q-0.34375 -0.15625 -1.203125 -0.15625l-0.921875 0l0 9.53125q0 0.9375 0.09375 1.1875q0.109375 0.234375 0.421875 0.40625q0.3125 0.171875 0.828125 0.171875l0.421875 0l0 0.34375l-6.46875 0l0 -0.34375l0.40625 0q0.53125 0 0.859375 -0.1875q0.234375 -0.125 0.375 -0.4375q0.109375 -0.21875 0.109375 -1.140625l0 -9.53125l-0.90625 0q-1.234375 0 -1.8125 0.53125q-0.78125 0.734375 -1.0 2.09375l-0.34375 0l0 -3.34375l11.09375 0zm6.8081512 7.796875l-4.671875 0q0.078125 1.6875 0.90625 2.671875q0.625 0.765625 1.5 0.765625q0.546875 0 0.984375 -0.296875q0.453125 -0.3125 0.96875 -1.109375l0.3125 0.203125q-0.6875 1.40625 -1.53125 2.0q-0.84375 0.578125 -1.9375 0.578125q-1.890625 0 -2.875 -1.453125q-0.78125 -1.171875 -0.78125 -2.921875q0 -2.125 1.15625 -3.375q1.15625 -1.265625 2.703125 -1.265625q1.28125 0 2.234375 1.0625q0.953125 1.046875 1.03125 3.140625zm-2.234375 -0.609375q0 -1.46875 -0.171875 -2.015625q-0.15625 -0.546875 -0.484375 -0.828125q-0.203125 -0.171875 -0.515625 -0.171875q-0.46875 0 -0.78125 0.46875q-0.53125 0.8125 -0.53125 2.21875l0 0.328125l2.484375 0zm6.827408 -3.34375l0 1.921875q0.859375 -1.3125 1.484375 -1.734375q0.640625 -0.4375 1.234375 -0.4375q0.515625 0 0.8125 0.3125q0.3125 0.3125 0.3125 0.890625q0 0.609375 -0.296875 0.953125q-0.296875 0.328125 -0.71875 0.328125q-0.484375 0 -0.84375 -0.3125q-0.34375 -0.3125 -0.40625 -0.34375q-0.09375 -0.0625 -0.21875 -0.0625q-0.265625 0 -0.5 0.203125q-0.375 0.3125 -0.5625 0.890625q-0.296875 0.875 -0.296875 1.9375l0 1.96875l0.015625 0.5q0 0.53125 0.0625 0.671875q0.109375 0.25 0.3125 0.359375q0.21875 0.109375 0.734375 0.140625l0 0.328125l-4.59375 0l0 -0.328125q0.546875 -0.046875 0.734375 -0.296875q0.203125 -0.265625 0.203125 -1.375l0 -4.71875q0 -0.71875 -0.0625 -0.921875q-0.09375 -0.25 -0.265625 -0.375q-0.171875 -0.125 -0.609375 -0.171875l0 -0.328125l3.46875 0zm8.280533 0l0 1.921875q0.859375 -1.3125 1.484375 -1.734375q0.640625 -0.4375 1.234375 -0.4375q0.515625 0 0.8125 0.3125q0.3125 0.3125 0.3125 0.890625q0 0.609375 -0.296875 0.953125q-0.296875 0.328125 -0.71875 0.328125q-0.484375 0 -0.84375 -0.3125q-0.34375 -0.3125 -0.40625 -0.34375q-0.09375 -0.0625 -0.21875 -0.0625q-0.265625 0 -0.5 0.203125q-0.375 0.3125 -0.5625 0.890625q-0.296875 0.875 -0.296875 1.9375l0 1.96875l0.015625 0.5q0 0.53125 0.0625 0.671875q0.109375 0.25 0.3125 0.359375q0.21875 0.109375 0.734375 0.140625l0 0.328125l-4.59375 0l0 -0.328125q0.546875 -0.046875 0.734375 -0.296875q0.203125 -0.265625 0.203125 -1.375l0 -4.71875q0 -0.71875 -0.0625 -0.921875q-0.09375 -0.25 -0.265625 -0.375q-0.171875 -0.125 -0.609375 -0.171875l0 -0.328125l3.46875 0zm6.796158 -4.125q0.59375 0 1.0 0.421875q0.421875 0.40625 0.421875 0.984375q0 0.578125 -0.421875 1.0q-0.40625 0.40625 -1.0 0.40625q-0.578125 0 -0.984375 -0.40625q-0.40625 -0.421875 -0.40625 -1.0q0 -0.578125 0.40625 -0.984375q0.40625 -0.421875 0.984375 -0.421875zm1.28125 4.125l0 6.75q0 0.90625 0.203125 1.15625q0.21875 0.25 0.828125 0.28125l0 0.328125l-4.609375 0l0 -0.328125q0.578125 -0.015625 0.84375 -0.328125q0.1875 -0.203125 0.1875 -1.109375l0 -4.96875q0 -0.90625 -0.21875 -1.15625q-0.203125 -0.25 -0.8125 -0.296875l0 -0.328125l3.578125 0zm5.245804 -3.125l0 3.125l2.015625 0l0 0.90625l-2.015625 0l0 5.25q0 0.734375 0.0625 0.953125q0.0625 0.21875 0.234375 0.359375q0.171875 0.125 0.328125 0.125q0.59375 0 1.109375 -0.90625l0.28125 0.203125q-0.734375 1.75 -2.390625 1.75q-0.8125 0 -1.375 -0.453125q-0.5625 -0.453125 -0.71875 -1.015625q-0.09375 -0.3125 -0.09375 -1.671875l0 -4.59375l-1.109375 0l0 -0.328125q1.15625 -0.8125 1.953125 -1.703125q0.8125 -0.890625 1.40625 -2.0l0.3125 0zm6.837677 2.875q1.109375 0 2.0625 0.578125q0.96875 0.5625 1.453125 1.625q0.5 1.046875 0.5 2.3125q0 1.8125 -0.90625 3.03125q-1.125 1.46875 -3.078125 1.46875q-1.921875 0 -2.96875 -1.34375q-1.03125 -1.34375 -1.03125 -3.125q0 -1.828125 1.0625 -3.1875q1.0625 -1.359375 2.90625 -1.359375zm0.046875 0.640625q-0.46875 0 -0.8125 0.359375q-0.328125 0.34375 -0.4375 1.375q-0.09375 1.03125 -0.09375 2.875q0 0.96875 0.125 1.828125q0.109375 0.640625 0.4375 0.984375q0.328125 0.328125 0.734375 0.328125q0.421875 0 0.6875 -0.21875q0.359375 -0.3125 0.46875 -0.875q0.1875 -0.859375 0.1875 -3.5q0 -1.546875 -0.171875 -2.125q-0.171875 -0.578125 -0.515625 -0.84375q-0.234375 -0.1875 -0.609375 -0.1875zm8.796875 -0.390625l0 1.921875q0.859375 -1.3125 1.484375 -1.734375q0.640625 -0.4375 1.234375 -0.4375q0.515625 0 0.8125 0.3125q0.3125 0.3125 0.3125 0.890625q0 0.609375 -0.296875 0.953125q-0.296875 0.328125 -0.71875 0.328125q-0.484375 0 -0.84375 -0.3125q-0.34375 -0.3125 -0.40625 -0.34375q-0.09375 -0.0625 -0.21875 -0.0625q-0.265625 0 -0.5 0.203125q-0.375 0.3125 -0.5625 0.890625q-0.296875 0.875 -0.296875 1.9375l0 1.96875l0.015625 0.5q0 0.53125 0.0625 0.671875q0.109375 0.25 0.3125 0.359375q0.21875 0.109375 0.734375 0.140625l0 0.328125l-4.59375 0l0 -0.328125q0.546875 -0.046875 0.734375 -0.296875q0.203125 -0.265625 0.203125 -1.375l0 -4.71875q0 -0.71875 -0.0625 -0.921875q-0.09375 -0.25 -0.265625 -0.375q-0.171875 -0.125 -0.609375 -0.171875l0 -0.328125l3.46875 0zm6.796158 -4.125q0.59375 0 1.0 0.421875q0.421875 0.40625 0.421875 0.984375q0 0.578125 -0.421875 1.0q-0.40625 0.40625 -1.0 0.40625q-0.578125 0 -0.984375 -0.40625q-0.40625 -0.421875 -0.40625 -1.0q0 -0.578125 0.40625 -0.984375q0.40625 -0.421875 0.984375 -0.421875zm1.28125 4.125l0 6.75q0 0.90625 0.203125 1.15625q0.21875 0.25 0.828125 0.28125l0 0.328125l-4.609375 0l0 -0.328125q0.578125 -0.015625 0.84375 -0.328125q0.1875 -0.203125 0.1875 -1.109375l0 -4.96875q0 -0.90625 -0.21875 -1.15625q-0.203125 -0.25 -0.8125 -0.296875l0 -0.328125l3.578125 0zm6.558304 7.265625q-1.5625 1.375 -2.796875 1.375q-0.734375 0 -1.21875 -0.484375q-0.46875 -0.484375 -0.46875 -1.203125q0 -0.96875 0.828125 -1.75q0.84375 -0.78125 3.65625 -2.078125l0 -0.84375q0 -0.96875 -0.109375 -1.21875q-0.09375 -0.25 -0.390625 -0.4375q-0.296875 -0.1875 -0.65625 -0.1875q-0.59375 0 -0.96875 0.265625q-0.25 0.15625 -0.25 0.375q0 0.203125 0.265625 0.484375q0.34375 0.390625 0.34375 0.75q0 0.453125 -0.34375 0.765625q-0.328125 0.3125 -0.859375 0.3125q-0.578125 0 -0.96875 -0.34375q-0.375 -0.359375 -0.375 -0.8125q0 -0.65625 0.515625 -1.25q0.515625 -0.609375 1.4375 -0.921875q0.9375 -0.3125 1.9375 -0.3125q1.21875 0 1.921875 0.515625q0.703125 0.5 0.921875 1.109375q0.125 0.375 0.125 1.75l0 3.3125q0 0.578125 0.046875 0.734375q0.046875 0.15625 0.125 0.234375q0.09375 0.0625 0.21875 0.0625q0.234375 0 0.484375 -0.34375l0.265625 0.21875q-0.453125 0.6875 -0.9375 1.0q-0.484375 0.296875 -1.109375 0.296875q-0.734375 0 -1.140625 -0.34375q-0.40625 -0.34375 -0.5 -1.03125zm0 -0.671875l0 -2.84375q-1.09375 0.640625 -1.640625 1.375q-0.359375 0.5 -0.359375 1.0q0 0.40625 0.3125 0.734375q0.21875 0.25 0.625 0.25q0.46875 0 1.0625 -0.515625zm7.96875 -10.4375l0 10.59375q0 0.90625 0.203125 1.15625q0.203125 0.25 0.8125 0.28125l0 0.328125l-4.59375 0l0 -0.328125q0.5625 -0.015625 0.84375 -0.328125q0.171875 -0.203125 0.171875 -1.109375l0 -8.8125q0 -0.90625 -0.203125 -1.15625q-0.203125 -0.25 -0.8125 -0.28125l0 -0.34375l3.578125 0z" fill-rule="nonzero"/><path fill="#000000" fill-opacity="0.0" d="m414.40158 180.16536l170.33072 0l0 91.37007l-170.33072 0z" fill-rule="evenodd"/><path stroke="#000000" stroke-width="1.0" stroke-linejoin="round" stroke-linecap="butt" d="m414.40158 180.16536l170.33072 0l0 91.37007l-170.33072 0z" fill-rule="evenodd"/><path fill="#000000" d="m472.35208 218.25476l-4.375 0l-0.515625 1.203125q-0.25 0.59375 -0.25 0.984375q0 0.53125 0.421875 0.765625q0.234375 0.15625 1.203125 0.21875l0 0.34375l-4.109375 0l0 -0.34375q0.671875 -0.09375 1.09375 -0.546875q0.4375 -0.453125 1.0625 -1.859375l4.421875 -9.859375l0.171875 0l4.453125 10.125q0.640625 1.453125 1.046875 1.8125q0.3125 0.296875 0.875 0.328125l0 0.34375l-5.984375 0l0 -0.34375l0.25 0q0.71875 0 1.015625 -0.1875q0.203125 -0.15625 0.203125 -0.421875q0 -0.171875 -0.0625 -0.34375q-0.015625 -0.078125 -0.265625 -0.6875l-0.65625 -1.53125zm-0.3125 -0.671875l-1.84375 -4.25l-1.890625 4.25l3.734375 0zm9.941711 3.328125l0 3.171875q0 0.640625 0.109375 0.875q0.109375 0.25 0.328125 0.359375q0.21875 0.109375 0.84375 0.109375l0 0.328125l-4.84375 0l0 -0.328125q0.5625 -0.015625 0.828125 -0.328125q0.1875 -0.203125 0.1875 -1.078125l0 -8.984375q0 -0.90625 -0.21875 -1.15625q-0.203125 -0.25 -0.796875 -0.296875l0 -0.328125l3.5625 0l0 1.125q0.453125 -0.65625 0.921875 -0.953125q0.65625 -0.421875 1.4375 -0.421875q0.9375 0 1.703125 0.59375q0.78125 0.578125 1.171875 1.625q0.40625 1.046875 0.40625 2.25q0 1.296875 -0.421875 2.375q-0.40625 1.0625 -1.203125 1.625q-0.78125 0.546875 -1.75 0.546875q-0.6875 0 -1.3125 -0.296875q-0.453125 -0.25 -0.953125 -0.8125zm0 -0.921875q0.78125 1.109375 1.6875 1.109375q0.484375 0 0.796875 -0.515625q0.484375 -0.765625 0.484375 -2.921875q0 -2.203125 -0.515625 -3.015625q-0.359375 -0.53125 -0.9375 -0.53125q-0.921875 0 -1.515625 1.328125l0 4.546875zm14.297577 -2.78125l-4.671875 0q0.078125 1.6875 0.90625 2.671875q0.625 0.765625 1.5 0.765625q0.546875 0 0.984375 -0.296875q0.453125 -0.3125 0.96875 -1.109375l0.3125 0.203125q-0.6875 1.40625 -1.53125 2.0q-0.84375 0.578125 -1.9375 0.578125q-1.890625 0 -2.875 -1.453125q-0.78125 -1.171875 -0.78125 -2.921875q0 -2.125 1.15625 -3.375q1.15625 -1.265625 2.703125 -1.265625q1.28125 0 2.234375 1.0625q0.953125 1.046875 1.03125 3.140625zm-2.234375 -0.609375q0 -1.46875 -0.171875 -2.015625q-0.15625 -0.546875 -0.484375 -0.828125q-0.203125 -0.171875 -0.515625 -0.171875q-0.46875 0 -0.78125 0.46875q-0.53125 0.8125 -0.53125 2.21875l0 0.328125l2.484375 0zm8.764923 -3.25l2.875 0l0 1.0l-1.640625 0q0.453125 0.453125 0.625 0.8125q0.21875 0.5 0.21875 1.03125q0 0.90625 -0.515625 1.578125q-0.5 0.671875 -1.375 1.0625q-0.859375 0.375 -1.53125 0.375q-0.0625 0 -1.09375 -0.046875q-0.40625 0 -0.6875 0.265625q-0.28125 0.265625 -0.28125 0.640625q0 0.328125 0.25 0.546875q0.25 0.203125 0.8125 0.203125l1.578125 -0.015625q1.90625 0 2.640625 0.40625q1.015625 0.59375 1.015625 1.796875q0 0.78125 -0.46875 1.40625q-0.46875 0.640625 -1.25 0.9375q-1.171875 0.453125 -2.703125 0.453125q-1.140625 0 -2.09375 -0.234375q-0.953125 -0.21875 -1.359375 -0.625q-0.40625 -0.390625 -0.40625 -0.828125q0 -0.40625 0.3125 -0.75q0.3125 -0.328125 1.171875 -0.5625q-1.1875 -0.578125 -1.1875 -1.609375q0 -0.640625 0.484375 -1.21875q0.484375 -0.59375 1.53125 -1.03125q-1.21875 -0.453125 -1.765625 -1.171875q-0.546875 -0.734375 -0.546875 -1.6875q0 -1.25 1.015625 -2.15625q1.015625 -0.921875 2.625 -0.921875q0.84375 0 1.75 0.34375zm-1.578125 0.21875q-0.53125 0 -0.890625 0.53125q-0.359375 0.53125 -0.359375 2.203125q0 1.359375 0.359375 1.875q0.359375 0.5 0.84375 0.5q0.546875 0 0.90625 -0.5q0.375 -0.5 0.375 -1.953125q0 -1.625 -0.40625 -2.21875q-0.296875 -0.4375 -0.828125 -0.4375zm-0.53125 9.453125q-0.9375 0 -1.234375 0.15625q-0.515625 0.28125 -0.515625 0.765625q0 0.46875 0.53125 0.84375q0.546875 0.375 2.03125 0.375q1.265625 0 1.984375 -0.34375q0.71875 -0.328125 0.71875 -0.9375q0 -0.21875 -0.125 -0.375q-0.25 -0.28125 -0.75 -0.390625q-0.5 -0.09375 -2.640625 -0.09375zm9.984375 -10.015625q1.109375 0 2.0624695 0.578125q0.96875 0.5625 1.453125 1.625q0.5 1.046875 0.5 2.3125q0 1.8125 -0.90625 3.03125q-1.125 1.46875 -3.0780945 1.46875q-1.921875 0 -2.96875 -1.34375q-1.03125 -1.34375 -1.03125 -3.125q0 -1.828125 1.0625 -3.1875q1.0625 -1.359375 2.90625 -1.359375zm0.046875 0.640625q-0.46875 0 -0.8125 0.359375q-0.328125 0.34375 -0.4375 1.375q-0.09375 1.03125 -0.09375 2.875q0 0.96875 0.125 1.828125q0.109375 0.640625 0.4375 0.984375q0.328125 0.328125 0.734375 0.328125q0.421875 0 0.6875 -0.21875q0.359375 -0.3125 0.46875 -0.875q0.18746948 -0.859375 0.18746948 -3.5q0 -1.546875 -0.17184448 -2.125q-0.171875 -0.578125 -0.515625 -0.84375q-0.234375 -0.1875 -0.609375 -0.1875zm14.632782 6.875q-1.5625 1.375 -2.796875 1.375q-0.734375 0 -1.21875 -0.484375q-0.46875 -0.484375 -0.46875 -1.203125q0 -0.96875 0.828125 -1.75q0.84375 -0.78125 3.65625 -2.078125l0 -0.84375q0 -0.96875 -0.109375 -1.21875q-0.09375 -0.25 -0.390625 -0.4375q-0.296875 -0.1875 -0.65625 -0.1875q-0.59375 0 -0.96875 0.265625q-0.25 0.15625 -0.25 0.375q0 0.203125 0.265625 0.484375q0.34375 0.390625 0.34375 0.75q0 0.453125 -0.34375 0.765625q-0.328125 0.3125 -0.859375 0.3125q-0.578125 0 -0.96875 -0.34375q-0.375 -0.359375 -0.375 -0.8125q0 -0.65625 0.515625 -1.25q0.515625 -0.609375 1.4375 -0.921875q0.9375 -0.3125 1.9375 -0.3125q1.21875 0 1.921875 0.515625q0.703125 0.5 0.921875 1.109375q0.125 0.375 0.125 1.75l0 3.3125q0 0.578125 0.046875 0.734375q0.046875 0.15625 0.125 0.234375q0.09375 0.0625 0.21875 0.0625q0.234375 0 0.484375 -0.34375l0.265625 0.21875q-0.453125 0.6875 -0.9375 1.0q-0.484375 0.296875 -1.109375 0.296875q-0.734375 0 -1.140625 -0.34375q-0.40625 -0.34375 -0.5 -1.03125zm0 -0.671875l0 -2.84375q-1.09375 0.640625 -1.640625 1.375q-0.359375 0.5 -0.359375 1.0q0 0.40625 0.3125 0.734375q0.21875 0.25 0.625 0.25q0.46875 0 1.0625 -0.515625zm7.96875 -10.4375l0 10.59375q0 0.90625 0.203125 1.15625q0.203125 0.25 0.8125 0.28125l0 0.328125l-4.59375 0l0 -0.328125q0.5625 -0.015625 0.84375 -0.328125q0.171875 -0.203125 0.171875 -1.109375l0 -8.8125q0 -0.90625 -0.203125 -1.15625q-0.203125 -0.25 -0.8125 -0.28125l0 -0.34375l3.578125 0z" fill-rule="nonzero"/><path fill="#000000" d="m481.4417 237.22351q1.765625 0.40625 2.46875 0.984375q1.015625 0.828125 1.015625 2.15625q0 1.390625 -1.109375 2.296875q-1.375 1.109375 -4.0 1.109375l-6.28125 0l0 -0.34375q0.859375 0 1.15625 -0.15625q0.3125 -0.15625 0.4375 -0.40625q0.125 -0.265625 0.125 -1.265625l0 -8.015625q0 -1.0 -0.125 -1.25q-0.125 -0.265625 -0.4375 -0.421875q-0.3125 -0.15625 -1.15625 -0.15625l0 -0.34375l5.921875 0q2.125 0 3.0 0.390625q0.890625 0.375 1.390625 1.125q0.515625 0.75 0.515625 1.59375q0 0.890625 -0.65625 1.59375q-0.640625 0.703125 -2.265625 1.109375zm-3.3125 -0.25q1.296875 0 1.90625 -0.28125q0.609375 -0.296875 0.9375 -0.828125q0.328125 -0.53125 0.328125 -1.34375q0 -0.828125 -0.328125 -1.34375q-0.3125 -0.53125 -0.921875 -0.796875q-0.59375 -0.28125 -1.921875 -0.265625l0 4.859375zm0 0.71875l0 3.953125l-0.015625 0.453125q0 0.5 0.25 0.75q0.25 0.25 0.75 0.25q0.734375 0 1.34375 -0.328125q0.609375 -0.328125 0.9375 -0.9375q0.328125 -0.609375 0.328125 -1.375q0 -0.859375 -0.40625 -1.546875q-0.390625 -0.6875 -1.09375 -0.953125q-0.703125 -0.28125 -2.09375 -0.265625zm12.787323 4.828125q-1.5625 1.375 -2.796875 1.375q-0.734375 0 -1.21875 -0.484375q-0.46875 -0.484375 -0.46875 -1.203125q0 -0.96875 0.828125 -1.75q0.84375 -0.78125 3.65625 -2.078125l0 -0.84375q0 -0.96875 -0.109375 -1.21875q-0.09375 -0.25 -0.390625 -0.4375q-0.296875 -0.1875 -0.65625 -0.1875q-0.59375 0 -0.96875 0.265625q-0.25 0.15625 -0.25 0.375q0 0.203125 0.265625 0.484375q0.34375 0.390625 0.34375 0.75q0 0.453125 -0.34375 0.765625q-0.328125 0.3125 -0.859375 0.3125q-0.578125 0 -0.96875 -0.34375q-0.375 -0.359375 -0.375 -0.8125q0 -0.65625 0.515625 -1.25q0.515625 -0.609375 1.4375 -0.921875q0.9375 -0.3125 1.9375 -0.3125q1.21875 0 1.921875 0.515625q0.703125 0.5 0.921875 1.109375q0.125 0.375 0.125 1.75l0 3.3125q0 0.578125 0.046875 0.734375q0.046875 0.15625 0.125 0.234375q0.09375 0.0625 0.21875 0.0625q0.234375 0 0.484375 -0.34375l0.265625 0.21875q-0.453125 0.6875 -0.9375 1.0q-0.484375 0.296875 -1.109375 0.296875q-0.734375 0 -1.140625 -0.34375q-0.40625 -0.34375 -0.5 -1.03125zm0 -0.671875l0 -2.84375q-1.09375 0.640625 -1.640625 1.375q-0.359375 0.5 -0.359375 1.0q0 0.40625 0.3125 0.734375q0.21875 0.25 0.625 0.25q0.46875 0 1.0625 -0.515625zm8.15625 -6.59375l0 1.921875q0.859375 -1.3125 1.484375 -1.734375q0.640625 -0.4375 1.234375 -0.4375q0.515625 0 0.8125 0.3125q0.3125 0.3125 0.3125 0.890625q0 0.609375 -0.296875 0.953125q-0.296875 0.328125 -0.71875 0.328125q-0.484375 0 -0.84375 -0.3125q-0.34375 -0.3125 -0.40625 -0.34375q-0.09375 -0.0625 -0.21875 -0.0625q-0.265625 0 -0.5 0.203125q-0.375 0.3125 -0.5625 0.890625q-0.296875 0.875 -0.296875 1.9375l0 1.96875l0.015625 0.5q0 0.53125 0.0625 0.671875q0.109375 0.25 0.3125 0.359375q0.21875 0.109375 0.734375 0.140625l0 0.328125l-4.59375 0l0 -0.328125q0.546875 -0.046875 0.734375 -0.296875q0.203125 -0.265625 0.203125 -1.375l0 -4.71875q0 -0.71875 -0.0625 -0.921875q-0.09375 -0.25 -0.265625 -0.375q-0.171875 -0.125 -0.609375 -0.171875l0 -0.328125l3.46875 0zm8.280518 0l0 1.921875q0.859375 -1.3125 1.484375 -1.734375q0.640625 -0.4375 1.234375 -0.4375q0.515625 0 0.8125 0.3125q0.3125 0.3125 0.3125 0.890625q0 0.609375 -0.296875 0.953125q-0.296875 0.328125 -0.71875 0.328125q-0.484375 0 -0.84375 -0.3125q-0.34375 -0.3125 -0.40625 -0.34375q-0.09375 -0.0625 -0.21875 -0.0625q-0.265625 0 -0.5 0.203125q-0.375 0.3125 -0.5625 0.890625q-0.296875 0.875 -0.296875 1.9375l0 1.96875l0.015625 0.5q0 0.53125 0.0625 0.671875q0.109375 0.25 0.3125 0.359375q0.21875 0.109375 0.734375 0.140625l0 0.328125l-4.59375 0l0 -0.328125q0.546875 -0.046875 0.734375 -0.296875q0.203125 -0.265625 0.203125 -1.375l0 -4.71875q0 -0.71875 -0.0625 -0.921875q-0.09375 -0.25 -0.265625 -0.375q-0.171875 -0.125 -0.609375 -0.171875l0 -0.328125l3.46875 0zm6.796173 -4.125q0.59375 0 1.0 0.421875q0.421875 0.40625 0.421875 0.984375q0 0.578125 -0.421875 1.0q-0.40625 0.40625 -1.0 0.40625q-0.578125 0 -0.984375 -0.40625q-0.40625 -0.421875 -0.40625 -1.0q0 -0.578125 0.40625 -0.984375q0.40625 -0.421875 0.984375 -0.421875zm1.28125 4.125l0 6.75q0 0.90625 0.203125 1.15625q0.21875 0.25 0.828125 0.28125l0 0.328125l-4.609375 0l0 -0.328125q0.578125 -0.015625 0.84375 -0.328125q0.1875 -0.203125 0.1875 -1.109375l0 -4.96875q0 -0.90625 -0.21875 -1.15625q-0.203125 -0.25 -0.8125 -0.296875l0 -0.328125l3.578125 0zm5.8707886 -0.25q1.109375 0 2.0625 0.578125q0.96875 0.5625 1.453125 1.625q0.5 1.046875 0.5 2.3125q0 1.8125 -0.90625 3.03125q-1.125 1.46875 -3.078125 1.46875q-1.921875 0 -2.96875 -1.34375q-1.03125 -1.34375 -1.03125 -3.125q0 -1.828125 1.0625 -3.1875q1.0625 -1.359375 2.90625 -1.359375zm0.046875 0.640625q-0.46875 0 -0.8125 0.359375q-0.328125 0.34375 -0.4375 1.375q-0.09375 1.03125 -0.09375 2.875q0 0.96875 0.125 1.828125q0.109375 0.640625 0.4375 0.984375q0.328125 0.328125 0.734375 0.328125q0.421875 0 0.6875 -0.21875q0.359375 -0.3125 0.46875 -0.875q0.1875 -0.859375 0.1875 -3.5q0 -1.546875 -0.171875 -2.125q-0.171875 -0.578125 -0.515625 -0.84375q-0.234375 -0.1875 -0.609375 -0.1875z" fill-rule="nonzero"/><path fill="#000000" fill-opacity="0.0" d="m219.39633 225.85039l194.99213 0" fill-rule="evenodd"/><path stroke="#000000" stroke-width="1.0" stroke-linejoin="round" stroke-linecap="butt" d="m219.39633 225.85039l188.99213 0" fill-rule="evenodd"/><path fill="#000000" stroke="#000000" stroke-width="1.0" stroke-linecap="butt" d="m408.38846 227.50212l4.538086 -1.6517334l-4.538086 -1.6517334z" fill-rule="evenodd"/><path fill="#000000" fill-opacity="0.0" d="m219.39633 71.49869l91.55905 154.3622" fill-rule="evenodd"/><path stroke="#000000" stroke-width="1.0" stroke-linejoin="round" stroke-linecap="butt" d="m219.39633 71.49869l88.49814 149.2017" fill-rule="evenodd"/><path fill="#000000" stroke="#000000" stroke-width="1.0" stroke-linecap="butt" d="m306.47385 221.54303l3.7357483 3.060501l-0.89450073 -4.7457733z" fill-rule="evenodd"/><path fill="#000000" fill-opacity="0.0" d="m219.39633 71.49869l194.99213 154.3622" fill-rule="evenodd"/><path stroke="#000000" stroke-width="1.0" stroke-linejoin="round" stroke-linecap="butt" d="m219.39633 71.49869l190.28775 150.63808" fill-rule="evenodd"/><path fill="#000000" stroke="#000000" stroke-width="1.0" stroke-linecap="butt" d="m408.6589 223.43182l4.5833435 1.5216827l-2.5329285 -4.111786z" fill-rule="evenodd"/><path fill="#000000" fill-opacity="0.0" d="m15.853019 149.20998l701.8583 -1.0708618" fill-rule="evenodd"/><path stroke="#000000" stroke-width="1.0" stroke-linejoin="round" stroke-linecap="butt" stroke-dasharray="4.0,3.0" d="m15.853019 149.20998l701.8583 -1.0708618" fill-rule="evenodd"/><path fill="#000000" fill-opacity="0.0" d="m584.7323 113.74541l153.13385 0l0 33.259842l-153.13385 0z" fill-rule="evenodd"/><path fill="#000000" d="m593.5448 125.752205l2.625 0l5.9375 7.2812424l0 -5.5937424q0 -0.90625 -0.203125 -1.125q-0.265625 -0.296875 -0.84375 -0.296875l-0.328125 0l0 -0.265625l3.375 0l0 0.265625l-0.34375 0q-0.609375 0 -0.875 0.375q-0.15625 0.21875 -0.15625 1.046875l0 8.171867l-0.25 0l-6.40625 -7.8124924l0 5.9687424q0 0.90625 0.203125 1.125q0.265625 0.296875 0.828125 0.296875l0.34375 0l0 0.265625l-3.375 0l0 -0.265625l0.34375 0q0.609375 0 0.875 -0.375q0.15625 -0.21875 0.15625 -1.046875l0 -6.7499924q-0.421875 -0.484375 -0.640625 -0.640625q-0.21875 -0.15625 -0.640625 -0.296875q-0.203125 -0.0625 -0.625 -0.0625l0 -0.265625zm12.8967285 -0.46875q0.296875 0 0.5 0.21875q0.21875 0.203125 0.21875 0.5q0 0.296875 -0.21875 0.515625q-0.203125 0.21875 -0.5 0.21875q-0.296875 0 -0.515625 -0.21875q-0.21875 -0.21875 -0.21875 -0.515625q0 -0.296875 0.203125 -0.5q0.21875 -0.21875 0.53125 -0.21875zm0.59375 3.4218674l0 5.265625q0 0.625 0.078125 0.828125q0.09375 0.203125 0.265625 0.3125q0.1875 0.09375 0.65625 0.09375l0 0.25l-3.1875 0l0 -0.25q0.484375 0 0.640625 -0.09375q0.171875 -0.09375 0.265625 -0.3125q0.09375 -0.21875 0.09375 -0.828125l0 -2.515625q0 -1.078125 -0.0625 -1.390625q-0.046875 -0.234375 -0.15625 -0.3125q-0.109375 -0.09375 -0.296875 -0.09375q-0.203125 0 -0.484375 0.109375l-0.109375 -0.265625l1.984375 -0.796875l0.3125 0zm1.4782715 0.1875l3.078125 0l0 0.265625l-0.203125 0q-0.265625 0 -0.421875 0.140625q-0.140625 0.140625 -0.140625 0.359375q0 0.265625 0.140625 0.59375l1.53125 3.625l1.53125 -3.75q0.15625 -0.40625 0.15625 -0.609375q0 -0.109375 -0.046875 -0.171875q-0.078125 -0.109375 -0.203125 -0.140625q-0.125 -0.046875 -0.5 -0.046875l0 -0.265625l2.140625 0l0 0.265625q-0.375 0.03125 -0.515625 0.15625q-0.25 0.21875 -0.453125 0.71875l-2.3125 5.625l-0.296875 0l-2.34375 -5.53125q-0.15625 -0.390625 -0.296875 -0.546875q-0.140625 -0.171875 -0.375 -0.296875q-0.109375 -0.0625 -0.46875 -0.125l0 -0.265625zm8.765625 2.46875q-0.015625 1.46875 0.703125 2.296875q0.71875 0.828125 1.6875 0.828125q0.640625 0 1.109375 -0.34375q0.484375 -0.359375 0.8125 -1.21875l0.21875 0.140625q-0.15625 0.984375 -0.875 1.796875q-0.71875 0.796875 -1.8125 0.796875q-1.1875 0 -2.03125 -0.921875q-0.828125 -0.921875 -0.828125 -2.46875q0 -1.6875 0.859375 -2.625q0.859375 -0.9375 2.171875 -0.9375q1.09375 0 1.796875 0.734375q0.71875 0.71875 0.71875 1.921875l-4.53125 0zm0 -0.40625l3.03125 0q-0.03125 -0.625 -0.15625 -0.890625q-0.171875 -0.40625 -0.53125 -0.625q-0.34375 -0.234375 -0.734375 -0.234375q-0.59375 0 -1.0625 0.46875q-0.46875 0.453125 -0.546875 1.28125zm7.661377 -5.6718674l0 8.687492q0 0.625 0.078125 0.828125q0.09375 0.1875 0.28125 0.296875q0.1875 0.109375 0.6875 0.109375l0 0.25l-3.203125 0l0 -0.25q0.453125 0 0.609375 -0.09375q0.171875 -0.09375 0.265625 -0.3125q0.09375 -0.21875 0.09375 -0.828125l0 -5.953125q0 -1.1093674 -0.0625 -1.3593674q-0.046875 -0.25 -0.15625 -0.34375q-0.109375 -0.09375 -0.28125 -0.09375q-0.1875 0 -0.46875 0.109375l-0.125 -0.25l1.953125 -0.796875l0.328125 0zm11.017273 10.171867l-3.75 -8.171867l0 6.4843674q0 0.90625 0.1875 1.125q0.265625 0.296875 0.84375 0.296875l0.34375 0l0 0.265625l-3.375 0l0 -0.265625l0.34375 0q0.609375 0 0.859375 -0.375q0.171875 -0.21875 0.171875 -1.046875l0 -6.3281174q0 -0.65625 -0.15625 -0.9375q-0.09375 -0.203125 -0.359375 -0.34375q-0.265625 -0.140625 -0.859375 -0.140625l0 -0.265625l2.734375 0l3.53125 7.5937424l3.453125 -7.5937424l2.75 0l0 0.265625l-0.328125 0q-0.625 0 -0.890625 0.375q-0.15625 0.21875 -0.15625 1.046875l0 6.3281174q0 0.90625 0.203125 1.125q0.265625 0.296875 0.84375 0.296875l0.328125 0l0 0.265625l-4.109375 0l0 -0.265625l0.34375 0q0.609375 0 0.859375 -0.375q0.15625 -0.21875 0.15625 -1.046875l0 -6.4843674l-3.734375 8.171867l-0.234375 0zm11.203613 -0.9375q-1.015625 0.765625 -1.265625 0.890625q-0.390625 0.1875 -0.828125 0.1875q-0.671875 0 -1.125 -0.46875q-0.4375 -0.46875 -0.4375 -1.21875q0 -0.484375 0.21875 -0.84375q0.296875 -0.484375 1.015625 -0.90625q0.734375 -0.4375 2.421875 -1.046875l0 -0.25q0 -0.984375 -0.3125 -1.34375q-0.3125 -0.375 -0.90625 -0.375q-0.453125 0 -0.71875 0.25q-0.265625 0.234375 -0.265625 0.546875l0.015625 0.421875q0 0.328125 -0.171875 0.515625q-0.171875 0.171875 -0.4375 0.171875q-0.265625 0 -0.4375 -0.1875q-0.171875 -0.1875 -0.171875 -0.515625q0 -0.609375 0.625 -1.125q0.640625 -0.515625 1.78125 -0.515625q0.875 0 1.421875 0.296875q0.4375 0.21875 0.625 0.6875q0.140625 0.3125 0.140625 1.265625l0 2.21875q0 0.9375 0.03125 1.15625q0.03125 0.203125 0.109375 0.28125q0.09375 0.078125 0.203125 0.078125q0.109375 0 0.1875 -0.0625q0.15625 -0.09375 0.578125 -0.515625l0 0.40625q-0.796875 1.0625 -1.53125 1.0625q-0.34375 0 -0.5625 -0.234375q-0.203125 -0.25 -0.203125 -0.828125zm0 -0.46875l0 -2.5q-1.078125 0.421875 -1.390625 0.609375q-0.5625 0.3125 -0.8125 0.65625q-0.25 0.34375 -0.25 0.75q0 0.515625 0.3125 0.859375q0.3125 0.34375 0.703125 0.34375q0.546875 0 1.4375 -0.71875zm8.364563 -1.078125q-0.265625 1.296875 -1.046875 2.0q-0.765625 0.6875 -1.703125 0.6875q-1.125 0 -1.953125 -0.9375q-0.828125 -0.9375 -0.828125 -2.53125q0 -1.546875 0.921875 -2.515625q0.921875 -0.96875 2.203125 -0.96875q0.96875 0 1.59375 0.515625q0.625 0.515625 0.625 1.0625q0 0.265625 -0.1875 0.4375q-0.171875 0.171875 -0.484375 0.171875q-0.421875 0 -0.640625 -0.28125q-0.109375 -0.140625 -0.15625 -0.5625q-0.03125 -0.421875 -0.28125 -0.640625q-0.265625 -0.21875 -0.703125 -0.21875q-0.71875 0 -1.15625 0.53125q-0.578125 0.703125 -0.578125 1.84375q0 1.171875 0.578125 2.078125q0.578125 0.890625 1.5625 0.890625q0.703125 0 1.25 -0.46875q0.40625 -0.328125 0.765625 -1.203125l0.21875 0.109375zm2.848877 -4.265625l0 1.46875q0.828125 -1.46875 1.6875 -1.46875q0.390625 0 0.640625 0.25q0.265625 0.234375 0.265625 0.546875q0 0.28125 -0.1875 0.484375q-0.1875 0.1875 -0.4375 0.1875q-0.25 0 -0.5625 -0.25q-0.3125 -0.25 -0.453125 -0.25q-0.140625 0 -0.28125 0.140625q-0.328125 0.296875 -0.671875 0.96875l0 3.140625q0 0.546875 0.140625 0.828125q0.09375 0.1875 0.328125 0.328125q0.234375 0.125 0.671875 0.125l0 0.25l-3.34375 0l0 -0.25q0.5 0 0.734375 -0.171875q0.1875 -0.109375 0.25 -0.359375q0.03125 -0.125 0.03125 -0.6875l0 -2.546875q0 -1.140625 -0.046875 -1.359375q-0.03125 -0.21875 -0.15625 -0.3125q-0.125 -0.109375 -0.3125 -0.109375q-0.234375 0 -0.5 0.109375l-0.078125 -0.265625l1.984375 -0.796875l0.296875 0zm6.17749 0q1.484375 0 2.375 1.125q0.765625 0.96875 0.765625 2.21875q0 0.890625 -0.421875 1.796875q-0.421875 0.890625 -1.15625 1.359375q-0.734375 0.453125 -1.65625 0.453125q-1.46875 0 -2.34375 -1.1875q-0.734375 -0.984375 -0.734375 -2.234375q0 -0.890625 0.4375 -1.78125q0.453125 -0.890625 1.171875 -1.3125q0.734375 -0.4375 1.5625 -0.4375zm-0.234375 0.46875q-0.375 0 -0.765625 0.234375q-0.375 0.21875 -0.609375 0.78125q-0.234375 0.5625 -0.234375 1.453125q0 1.421875 0.5625 2.46875q0.578125 1.03125 1.5 1.03125q0.703125 0 1.140625 -0.5625q0.453125 -0.578125 0.453125 -1.96875q0 -1.75 -0.75 -2.75q-0.5 -0.6875 -1.296875 -0.6875zm14.2734375 -3.6406174l0 3.3593674l-0.265625 0q-0.125 -0.9687424 -0.46875 -1.5468674q-0.328125 -0.578125 -0.9375 -0.90625q-0.609375 -0.34375 -1.28125 -0.34375q-0.734375 0 -1.234375 0.46875q-0.484375 0.453125 -0.484375 1.03125q0 0.43749237 0.3125 0.7968674q0.453125 0.546875 2.109375 1.4375q1.359375 0.734375 1.859375 1.125q0.5 0.390625 0.765625 0.921875q0.265625 0.515625 0.265625 1.109375q0 1.09375 -0.859375 1.890625q-0.84375 0.796875 -2.1875 0.796875q-0.421875 0 -0.796875 -0.0625q-0.21875 -0.03125 -0.921875 -0.25q-0.703125 -0.234375 -0.890625 -0.234375q-0.171875 0 -0.28125 0.109375q-0.09375 0.109375 -0.140625 0.4375l-0.265625 0l0 -3.328125l0.265625 0q0.171875 1.046875 0.484375 1.578125q0.328125 0.515625 0.96875 0.859375q0.65625 0.328125 1.421875 0.328125q0.890625 0 1.40625 -0.46875q0.53125 -0.46875 0.53125 -1.109375q0 -0.359375 -0.203125 -0.71875q-0.1875 -0.375 -0.609375 -0.6875q-0.28125 -0.21875 -1.53125 -0.90625q-1.234375 -0.703125 -1.765625 -1.109375q-0.53125 -0.421875 -0.796875 -0.921875q-0.265625 -0.5 -0.265625 -1.109375q0 -1.0468674 0.796875 -1.7968674q0.796875 -0.75 2.03125 -0.75q0.78125 0 1.640625 0.375q0.40625 0.171875 0.578125 0.171875q0.171875 0 0.296875 -0.109375q0.125 -0.109375 0.1875 -0.4375l0.265625 0zm5.104248 3.1718674q1.484375 0 2.375 1.125q0.765625 0.96875 0.765625 2.21875q0 0.890625 -0.421875 1.796875q-0.421875 0.890625 -1.15625 1.359375q-0.734375 0.453125 -1.65625 0.453125q-1.46875 0 -2.34375 -1.1875q-0.734375 -0.984375 -0.734375 -2.234375q0 -0.890625 0.4375 -1.78125q0.453125 -0.890625 1.171875 -1.3125q0.734375 -0.4375 1.5625 -0.4375zm-0.234375 0.46875q-0.375 0 -0.765625 0.234375q-0.375 0.21875 -0.609375 0.78125q-0.234375 0.5625 -0.234375 1.453125q0 1.421875 0.5625 2.46875q0.578125 1.03125 1.5 1.03125q0.703125 0 1.140625 -0.5625q0.453125 -0.578125 0.453125 -1.96875q0 -1.75 -0.75 -2.75q-0.5 -0.6875 -1.296875 -0.6875zm9.921875 3.796875q-0.265625 1.296875 -1.046875 2.0q-0.765625 0.6875 -1.703125 0.6875q-1.125 0 -1.953125 -0.9375q-0.828125 -0.9375 -0.828125 -2.53125q0 -1.546875 0.921875 -2.515625q0.921875 -0.96875 2.203125 -0.96875q0.96875 0 1.59375 0.515625q0.625 0.515625 0.625 1.0625q0 0.265625 -0.1875 0.4375q-0.171875 0.171875 -0.484375 0.171875q-0.421875 0 -0.640625 -0.28125q-0.109375 -0.140625 -0.15625 -0.5625q-0.03125 -0.421875 -0.28125 -0.640625q-0.265625 -0.21875 -0.703125 -0.21875q-0.71875 0 -1.15625 0.53125q-0.578125 0.703125 -0.578125 1.84375q0 1.171875 0.578125 2.078125q0.578125 0.890625 1.5625 0.890625q0.703125 0 1.25 -0.46875q0.40625 -0.328125 0.765625 -1.203125l0.21875 0.109375zm2.598877 -7.6874924q0.296875 0 0.5 0.21875q0.21875 0.203125 0.21875 0.5q0 0.296875 -0.21875 0.515625q-0.203125 0.21875 -0.5 0.21875q-0.296875 0 -0.515625 -0.21875q-0.21875 -0.21875 -0.21875 -0.515625q0 -0.296875 0.203125 -0.5q0.21875 -0.21875 0.53125 -0.21875zm0.59375 3.4218674l0 5.265625q0 0.625 0.078125 0.828125q0.09375 0.203125 0.265625 0.3125q0.1875 0.09375 0.65625 0.09375l0 0.25l-3.1875 0l0 -0.25q0.484375 0 0.640625 -0.09375q0.171875 -0.09375 0.265625 -0.3125q0.09375 -0.21875 0.09375 -0.828125l0 -2.515625q0 -1.078125 -0.0625 -1.390625q-0.046875 -0.234375 -0.15625 -0.3125q-0.109375 -0.09375 -0.296875 -0.09375q-0.203125 0 -0.484375 0.109375l-0.109375 -0.265625l1.984375 -0.796875l0.3125 0zm5.5251465 5.8125q-1.015625 0.765625 -1.265625 0.890625q-0.390625 0.1875 -0.828125 0.1875q-0.671875 0 -1.125 -0.46875q-0.4375 -0.46875 -0.4375 -1.21875q0 -0.484375 0.21875 -0.84375q0.296875 -0.484375 1.015625 -0.90625q0.734375 -0.4375 2.421875 -1.046875l0 -0.25q0 -0.984375 -0.3125 -1.34375q-0.3125 -0.375 -0.90625 -0.375q-0.453125 0 -0.71875 0.25q-0.265625 0.234375 -0.265625 0.546875l0.015625 0.421875q0 0.328125 -0.171875 0.515625q-0.171875 0.171875 -0.4375 0.171875q-0.265625 0 -0.4375 -0.1875q-0.171875 -0.1875 -0.171875 -0.515625q0 -0.609375 0.625 -1.125q0.640625 -0.515625 1.78125 -0.515625q0.875 0 1.421875 0.296875q0.4375 0.21875 0.625 0.6875q0.140625 0.3125 0.140625 1.265625l0 2.21875q0 0.9375 0.03125 1.15625q0.03125 0.203125 0.109375 0.28125q0.09375 0.078125 0.203125 0.078125q0.109375 0 0.1875 -0.0625q0.15625 -0.09375 0.578125 -0.515625l0 0.40625q-0.796875 1.0625 -1.53125 1.0625q-0.34375 0 -0.5625 -0.234375q-0.203125 -0.25 -0.203125 -0.828125zm0 -0.46875l0 -2.5q-1.078125 0.421875 -1.390625 0.609375q-0.5625 0.3125 -0.8125 0.65625q-0.25 0.34375 -0.25 0.75q0 0.515625 0.3125 0.859375q0.3125 0.34375 0.703125 0.34375q0.546875 0 1.4375 -0.71875zm5.052002 -8.765617l0 8.687492q0 0.625 0.078125 0.828125q0.09375 0.1875 0.28125 0.296875q0.1875 0.109375 0.6875 0.109375l0 0.25l-3.203125 0l0 -0.25q0.453125 0 0.609375 -0.09375q0.171875 -0.09375 0.265625 -0.3125q0.09375 -0.21875 0.09375 -0.828125l0 -5.953125q0 -1.1093674 -0.0625 -1.3593674q-0.046875 -0.25 -0.15625 -0.34375q-0.109375 -0.09375 -0.28125 -0.09375q-0.1875 0 -0.46875 0.109375l-0.125 -0.25l1.953125 -0.796875l0.328125 0z" fill-rule="nonzero"/><path fill="#000000" fill-opacity="0.0" d="m584.7323 147.00525l153.13385 0l0 33.259842l-153.13385 0z" fill-rule="evenodd"/><path fill="#000000" d="m593.5448 159.01204l2.625 0l5.9375 7.28125l0 -5.59375q0 -0.90625 -0.203125 -1.125q-0.265625 -0.296875 -0.84375 -0.296875l-0.328125 0l0 -0.265625l3.375 0l0 0.265625l-0.34375 0q-0.609375 0 -0.875 0.375q-0.15625 0.21875 -0.15625 1.046875l0 8.171875l-0.25 0l-6.40625 -7.8125l0 5.96875q0 0.90625 0.203125 1.125q0.265625 0.296875 0.828125 0.296875l0.34375 0l0 0.265625l-3.375 0l0 -0.265625l0.34375 0q0.609375 0 0.875 -0.375q0.15625 -0.21875 0.15625 -1.046875l0 -6.75q-0.421875 -0.484375 -0.640625 -0.640625q-0.21875 -0.15625 -0.640625 -0.296875q-0.203125 -0.0625 -0.625 -0.0625l0 -0.265625zm12.8967285 -0.46875q0.296875 0 0.5 0.21875q0.21875 0.203125 0.21875 0.5q0 0.296875 -0.21875 0.515625q-0.203125 0.21875 -0.5 0.21875q-0.296875 0 -0.515625 -0.21875q-0.21875 -0.21875 -0.21875 -0.515625q0 -0.296875 0.203125 -0.5q0.21875 -0.21875 0.53125 -0.21875zm0.59375 3.421875l0 5.265625q0 0.625 0.078125 0.828125q0.09375 0.203125 0.265625 0.3125q0.1875 0.09375 0.65625 0.09375l0 0.25l-3.1875 0l0 -0.25q0.484375 0 0.640625 -0.09375q0.171875 -0.09375 0.265625 -0.3125q0.09375 -0.21875 0.09375 -0.828125l0 -2.515625q0 -1.078125 -0.0625 -1.390625q-0.046875 -0.234375 -0.15625 -0.3125q-0.109375 -0.09375 -0.296875 -0.09375q-0.203125 0 -0.484375 0.109375l-0.109375 -0.265625l1.984375 -0.796875l0.3125 0zm1.4782715 0.1875l3.078125 0l0 0.265625l-0.203125 0q-0.265625 0 -0.421875 0.140625q-0.140625 0.140625 -0.140625 0.359375q0 0.265625 0.140625 0.59375l1.53125 3.625l1.53125 -3.75q0.15625 -0.40625 0.15625 -0.609375q0 -0.109375 -0.046875 -0.171875q-0.078125 -0.109375 -0.203125 -0.140625q-0.125 -0.046875 -0.5 -0.046875l0 -0.265625l2.140625 0l0 0.265625q-0.375 0.03125 -0.515625 0.15625q-0.25 0.21875 -0.453125 0.71875l-2.3125 5.625l-0.296875 0l-2.34375 -5.53125q-0.15625 -0.390625 -0.296875 -0.546875q-0.140625 -0.171875 -0.375 -0.296875q-0.109375 -0.0625 -0.46875 -0.125l0 -0.265625zm8.765625 2.46875q-0.015625 1.46875 0.703125 2.296875q0.71875 0.828125 1.6875 0.828125q0.640625 0 1.109375 -0.34375q0.484375 -0.359375 0.8125 -1.21875l0.21875 0.140625q-0.15625 0.984375 -0.875 1.796875q-0.71875 0.796875 -1.8125 0.796875q-1.1875 0 -2.03125 -0.921875q-0.828125 -0.921875 -0.828125 -2.46875q0 -1.6875 0.859375 -2.625q0.859375 -0.9375 2.171875 -0.9375q1.09375 0 1.796875 0.734375q0.71875 0.71875 0.71875 1.921875l-4.53125 0zm0 -0.40625l3.03125 0q-0.03125 -0.625 -0.15625 -0.890625q-0.171875 -0.40625 -0.53125 -0.625q-0.34375 -0.234375 -0.734375 -0.234375q-0.59375 0 -1.0625 0.46875q-0.46875 0.453125 -0.546875 1.28125zm7.661377 -5.671875l0 8.6875q0 0.625 0.078125 0.828125q0.09375 0.1875 0.28125 0.296875q0.1875 0.109375 0.6875 0.109375l0 0.25l-3.203125 0l0 -0.25q0.453125 0 0.609375 -0.09375q0.171875 -0.09375 0.265625 -0.3125q0.09375 -0.21875 0.09375 -0.828125l0 -5.953125q0 -1.109375 -0.0625 -1.359375q-0.046875 -0.25 -0.15625 -0.34375q-0.109375 -0.09375 -0.28125 -0.09375q-0.1875 0 -0.46875 0.109375l-0.125 -0.25l1.953125 -0.796875l0.328125 0zm11.017273 10.171875l-3.75 -8.171875l0 6.484375q0 0.90625 0.1875 1.125q0.265625 0.296875 0.84375 0.296875l0.34375 0l0 0.265625l-3.375 0l0 -0.265625l0.34375 0q0.609375 0 0.859375 -0.375q0.171875 -0.21875 0.171875 -1.046875l0 -6.328125q0 -0.65625 -0.15625 -0.9375q-0.09375 -0.203125 -0.359375 -0.34375q-0.265625 -0.140625 -0.859375 -0.140625l0 -0.265625l2.734375 0l3.53125 7.59375l3.453125 -7.59375l2.75 0l0 0.265625l-0.328125 0q-0.625 0 -0.890625 0.375q-0.15625 0.21875 -0.15625 1.046875l0 6.328125q0 0.90625 0.203125 1.125q0.265625 0.296875 0.84375 0.296875l0.328125 0l0 0.265625l-4.109375 0l0 -0.265625l0.34375 0q0.609375 0 0.859375 -0.375q0.15625 -0.21875 0.15625 -1.046875l0 -6.484375l-3.734375 8.171875l-0.234375 0zm9.156738 -10.171875q0.296875 0 0.5 0.21875q0.21875 0.203125 0.21875 0.5q0 0.296875 -0.21875 0.515625q-0.203125 0.21875 -0.5 0.21875q-0.296875 0 -0.515625 -0.21875q-0.21875 -0.21875 -0.21875 -0.515625q0 -0.296875 0.203125 -0.5q0.21875 -0.21875 0.53125 -0.21875zm0.59375 3.421875l0 5.265625q0 0.625 0.078125 0.828125q0.09375 0.203125 0.265625 0.3125q0.1875 0.09375 0.65625 0.09375l0 0.25l-3.1875 0l0 -0.25q0.484375 0 0.640625 -0.09375q0.171875 -0.09375 0.265625 -0.3125q0.09375 -0.21875 0.09375 -0.828125l0 -2.515625q0 -1.078125 -0.0625 -1.390625q-0.046875 -0.234375 -0.15625 -0.3125q-0.109375 -0.09375 -0.296875 -0.09375q-0.203125 0 -0.484375 0.109375l-0.109375 -0.265625l1.984375 -0.796875l0.3125 0zm7.3845215 4.265625q-0.265625 1.296875 -1.046875 2.0q-0.765625 0.6875 -1.703125 0.6875q-1.125 0 -1.953125 -0.9375q-0.828125 -0.9375 -0.828125 -2.53125q0 -1.546875 0.921875 -2.515625q0.921875 -0.96875 2.203125 -0.96875q0.96875 0 1.59375 0.515625q0.625 0.515625 0.625 1.0625q0 0.265625 -0.1875 0.4375q-0.171875 0.171875 -0.484375 0.171875q-0.421875 0 -0.640625 -0.28125q-0.109375 -0.140625 -0.15625 -0.5625q-0.03125 -0.421875 -0.28125 -0.640625q-0.265625 -0.21875 -0.703125 -0.21875q-0.71875 0 -1.15625 0.53125q-0.578125 0.703125 -0.578125 1.84375q0 1.171875 0.578125 2.078125q0.578125 0.890625 1.5625 0.890625q0.703125 0 1.25 -0.46875q0.40625 -0.328125 0.765625 -1.203125l0.21875 0.109375zm2.848877 -4.265625l0 1.46875q0.828125 -1.46875 1.6875 -1.46875q0.390625 0 0.640625 0.25q0.265625 0.234375 0.265625 0.546875q0 0.28125 -0.1875 0.484375q-0.1875 0.1875 -0.4375 0.1875q-0.25 0 -0.5625 -0.25q-0.3125 -0.25 -0.453125 -0.25q-0.140625 0 -0.28125 0.140625q-0.328125 0.296875 -0.671875 0.96875l0 3.140625q0 0.546875 0.140625 0.828125q0.09375 0.1875 0.328125 0.328125q0.234375 0.125 0.671875 0.125l0 0.25l-3.34375 0l0 -0.25q0.5 0 0.734375 -0.171875q0.1875 -0.109375 0.25 -0.359375q0.03125 -0.125 0.03125 -0.6875l0 -2.546875q0 -1.140625 -0.046875 -1.359375q-0.03125 -0.21875 -0.15625 -0.3125q-0.125 -0.109375 -0.3125 -0.109375q-0.234375 0 -0.5 0.109375l-0.078125 -0.265625l1.984375 -0.796875l0.296875 0zm6.17749 0q1.484375 0 2.375 1.125q0.765625 0.96875 0.765625 2.21875q0 0.890625 -0.421875 1.796875q-0.421875 0.890625 -1.15625 1.359375q-0.734375 0.453125 -1.65625 0.453125q-1.46875 0 -2.34375 -1.1875q-0.734375 -0.984375 -0.734375 -2.234375q0 -0.890625 0.4375 -1.78125q0.453125 -0.890625 1.171875 -1.3125q0.734375 -0.4375 1.5625 -0.4375zm-0.234375 0.46875q-0.375 0 -0.765625 0.234375q-0.375 0.21875 -0.609375 0.78125q-0.234375 0.5625 -0.234375 1.453125q0 1.421875 0.5625 2.46875q0.578125 1.03125 1.5 1.03125q0.703125 0 1.140625 -0.5625q0.453125 -0.578125 0.453125 -1.96875q0 -1.75 -0.75 -2.75q-0.5 -0.6875 -1.296875 -0.6875zm14.2734375 -3.640625l0 3.359375l-0.265625 0q-0.125 -0.96875 -0.46875 -1.546875q-0.328125 -0.578125 -0.9375 -0.90625q-0.609375 -0.34375 -1.28125 -0.34375q-0.734375 0 -1.234375 0.46875q-0.484375 0.453125 -0.484375 1.03125q0 0.4375 0.3125 0.796875q0.453125 0.546875 2.109375 1.4375q1.359375 0.734375 1.859375 1.125q0.5 0.390625 0.765625 0.921875q0.265625 0.515625 0.265625 1.109375q0 1.09375 -0.859375 1.890625q-0.84375 0.796875 -2.1875 0.796875q-0.421875 0 -0.796875 -0.0625q-0.21875 -0.03125 -0.921875 -0.25q-0.703125 -0.234375 -0.890625 -0.234375q-0.171875 0 -0.28125 0.109375q-0.09375 0.109375 -0.140625 0.4375l-0.265625 0l0 -3.328125l0.265625 0q0.171875 1.046875 0.484375 1.578125q0.328125 0.515625 0.96875 0.859375q0.65625 0.328125 1.421875 0.328125q0.890625 0 1.40625 -0.46875q0.53125 -0.46875 0.53125 -1.109375q0 -0.359375 -0.203125 -0.71875q-0.1875 -0.375 -0.609375 -0.6875q-0.28125 -0.21875 -1.53125 -0.90625q-1.234375 -0.703125 -1.765625 -1.109375q-0.53125 -0.421875 -0.796875 -0.921875q-0.265625 -0.5 -0.265625 -1.109375q0 -1.046875 0.796875 -1.796875q0.796875 -0.75 2.03125 -0.75q0.78125 0 1.640625 0.375q0.40625 0.171875 0.578125 0.171875q0.171875 0 0.296875 -0.109375q0.125 -0.109375 0.1875 -0.4375l0.265625 0zm5.104248 3.171875q1.484375 0 2.375 1.125q0.765625 0.96875 0.765625 2.21875q0 0.890625 -0.421875 1.796875q-0.421875 0.890625 -1.15625 1.359375q-0.734375 0.453125 -1.65625 0.453125q-1.46875 0 -2.34375 -1.1875q-0.734375 -0.984375 -0.734375 -2.234375q0 -0.890625 0.4375 -1.78125q0.453125 -0.890625 1.171875 -1.3125q0.734375 -0.4375 1.5625 -0.4375zm-0.234375 0.46875q-0.375 0 -0.765625 0.234375q-0.375 0.21875 -0.609375 0.78125q-0.234375 0.5625 -0.234375 1.453125q0 1.421875 0.5625 2.46875q0.578125 1.03125 1.5 1.03125q0.703125 0 1.140625 -0.5625q0.453125 -0.578125 0.453125 -1.96875q0 -1.75 -0.75 -2.75q-0.5 -0.6875 -1.296875 -0.6875zm9.921875 3.796875q-0.265625 1.296875 -1.046875 2.0q-0.765625 0.6875 -1.703125 0.6875q-1.125 0 -1.953125 -0.9375q-0.828125 -0.9375 -0.828125 -2.53125q0 -1.546875 0.921875 -2.515625q0.921875 -0.96875 2.203125 -0.96875q0.96875 0 1.59375 0.515625q0.625 0.515625 0.625 1.0625q0 0.265625 -0.1875 0.4375q-0.171875 0.171875 -0.484375 0.171875q-0.421875 0 -0.640625 -0.28125q-0.109375 -0.140625 -0.15625 -0.5625q-0.03125 -0.421875 -0.28125 -0.640625q-0.265625 -0.21875 -0.703125 -0.21875q-0.71875 0 -1.15625 0.53125q-0.578125 0.703125 -0.578125 1.84375q0 1.171875 0.578125 2.078125q0.578125 0.890625 1.5625 0.890625q0.703125 0 1.25 -0.46875q0.40625 -0.328125 0.765625 -1.203125l0.21875 0.109375zm2.598877 -7.6875q0.296875 0 0.5 0.21875q0.21875 0.203125 0.21875 0.5q0 0.296875 -0.21875 0.515625q-0.203125 0.21875 -0.5 0.21875q-0.296875 0 -0.515625 -0.21875q-0.21875 -0.21875 -0.21875 -0.515625q0 -0.296875 0.203125 -0.5q0.21875 -0.21875 0.53125 -0.21875zm0.59375 3.421875l0 5.265625q0 0.625 0.078125 0.828125q0.09375 0.203125 0.265625 0.3125q0.1875 0.09375 0.65625 0.09375l0 0.25l-3.1875 0l0 -0.25q0.484375 0 0.640625 -0.09375q0.171875 -0.09375 0.265625 -0.3125q0.09375 -0.21875 0.09375 -0.828125l0 -2.515625q0 -1.078125 -0.0625 -1.390625q-0.046875 -0.234375 -0.15625 -0.3125q-0.109375 -0.09375 -0.296875 -0.09375q-0.203125 0 -0.484375 0.109375l-0.109375 -0.265625l1.984375 -0.796875l0.3125 0zm5.5251465 5.8125q-1.015625 0.765625 -1.265625 0.890625q-0.390625 0.1875 -0.828125 0.1875q-0.671875 0 -1.125 -0.46875q-0.4375 -0.46875 -0.4375 -1.21875q0 -0.484375 0.21875 -0.84375q0.296875 -0.484375 1.015625 -0.90625q0.734375 -0.4375 2.421875 -1.046875l0 -0.25q0 -0.984375 -0.3125 -1.34375q-0.3125 -0.375 -0.90625 -0.375q-0.453125 0 -0.71875 0.25q-0.265625 0.234375 -0.265625 0.546875l0.015625 0.421875q0 0.328125 -0.171875 0.515625q-0.171875 0.171875 -0.4375 0.171875q-0.265625 0 -0.4375 -0.1875q-0.171875 -0.1875 -0.171875 -0.515625q0 -0.609375 0.625 -1.125q0.640625 -0.515625 1.78125 -0.515625q0.875 0 1.421875 0.296875q0.4375 0.21875 0.625 0.6875q0.140625 0.3125 0.140625 1.265625l0 2.21875q0 0.9375 0.03125 1.15625q0.03125 0.203125 0.109375 0.28125q0.09375 0.078125 0.203125 0.078125q0.109375 0 0.1875 -0.0625q0.15625 -0.09375 0.578125 -0.515625l0 0.40625q-0.796875 1.0625 -1.53125 1.0625q-0.34375 0 -0.5625 -0.234375q-0.203125 -0.25 -0.203125 -0.828125zm0 -0.46875l0 -2.5q-1.078125 0.421875 -1.390625 0.609375q-0.5625 0.3125 -0.8125 0.65625q-0.25 0.34375 -0.25 0.75q0 0.515625 0.3125 0.859375q0.3125 0.34375 0.703125 0.34375q0.546875 0 1.4375 -0.71875zm5.052002 -8.765625l0 8.6875q0 0.625 0.078125 0.828125q0.09375 0.1875 0.28125 0.296875q0.1875 0.109375 0.6875 0.109375l0 0.25l-3.203125 0l0 -0.25q0.453125 0 0.609375 -0.09375q0.171875 -0.09375 0.265625 -0.3125q0.09375 -0.21875 0.09375 -0.828125l0 -5.953125q0 -1.109375 -0.0625 -1.359375q-0.046875 -0.25 -0.15625 -0.34375q-0.109375 -0.09375 -0.28125 -0.09375q-0.1875 0 -0.46875 0.109375l-0.125 -0.25l1.953125 -0.796875l0.328125 0z" fill-rule="nonzero"/><path fill="#000000" fill-opacity="0.0" d="m285.8924 225.85039l50.11023 0l0 38.771652l-50.11023 0z" fill-rule="evenodd"/><path fill="#000000" d="m299.86115 253.35101l0 0.28125q-1.171875 -0.59375 -1.96875 -1.390625q-1.125 -1.125 -1.734375 -2.671875q-0.609375 -1.546875 -0.609375 -3.203125q0 -2.421875 1.1875 -4.40625q1.203125 -2.0 3.125 -2.859375l0 0.328125q-0.953125 0.53125 -1.578125 1.453125q-0.609375 0.921875 -0.921875 2.34375q-0.296875 1.40625 -0.296875 2.9375q0 1.671875 0.25 3.046875q0.203125 1.078125 0.484375 1.734375q0.296875 0.65625 0.78125 1.25q0.5 0.609375 1.28125 1.15625zm3.65625 -8.828125l4.921875 0l0 -3.03125q0 -0.8125 -0.109375 -1.0625q-0.078125 -0.203125 -0.328125 -0.34375q-0.328125 -0.1875 -0.703125 -0.1875l-0.375 0l0 -0.28125l4.53125 0l0 0.28125l-0.375 0q-0.375 0 -0.71875 0.1875q-0.25 0.125 -0.34375 0.375q-0.078125 0.25 -0.078125 1.03125l0 6.84375q0 0.796875 0.09375 1.0625q0.078125 0.1875 0.328125 0.328125q0.34375 0.1875 0.71875 0.1875l0.375 0l0 0.296875l-4.53125 0l0 -0.296875l0.375 0q0.640625 0 0.9375 -0.375q0.203125 -0.25 0.203125 -1.203125l0 -3.234375l-4.921875 0l0 3.234375q0 0.796875 0.09375 1.0625q0.078125 0.1875 0.328125 0.328125q0.34375 0.1875 0.71875 0.1875l0.375 0l0 0.296875l-4.53125 0l0 -0.296875l0.375 0q0.65625 0 0.953125 -0.375q0.1875 -0.25 0.1875 -1.203125l0 -6.84375q0 -0.8125 -0.109375 -1.0625q-0.078125 -0.203125 -0.3125 -0.34375q-0.34375 -0.1875 -0.71875 -0.1875l-0.375 0l0 -0.28125l4.53125 0l0 0.28125l-0.375 0q-0.375 0 -0.71875 0.1875q-0.234375 0.125 -0.328125 0.375q-0.09375 0.25 -0.09375 1.03125l0 3.03125zm10.1328125 -3.875l2.578125 -1.25l0.265625 0l0 8.9375q0 0.890625 0.0625 1.109375q0.078125 0.21875 0.3125 0.34375q0.234375 0.109375 0.953125 0.125l0 0.296875l-3.984375 0l0 -0.296875q0.75 -0.015625 0.96875 -0.125q0.21875 -0.109375 0.296875 -0.296875q0.09375 -0.203125 0.09375 -1.15625l0 -5.71875q0 -1.15625 -0.078125 -1.484375q-0.046875 -0.25 -0.203125 -0.359375q-0.140625 -0.125 -0.34375 -0.125q-0.28125 0 -0.796875 0.25l-0.125 -0.25zm6.484375 -1.21875l0 -0.328125q1.1875 0.578125 1.984375 1.375q1.109375 1.140625 1.71875 2.6875q0.609375 1.53125 0.609375 3.1875q0 2.421875 -1.1875 4.421875q-1.1875 2.0 -3.125 2.859375l0 -0.28125q0.96875 -0.546875 1.578125 -1.46875q0.625 -0.90625 0.921875 -2.328125q0.3125 -1.421875 0.3125 -2.96875q0 -1.65625 -0.265625 -3.03125q-0.1875 -1.078125 -0.484375 -1.71875q-0.296875 -0.65625 -0.78125 -1.25q-0.484375 -0.609375 -1.28125 -1.15625z" fill-rule="nonzero"/><path fill="#000000" fill-opacity="0.0" d="m49.065617 180.16536l170.33072 0l0 91.37007l-170.33072 0z" fill-rule="evenodd"/><path stroke="#000000" stroke-width="1.0" stroke-linejoin="round" stroke-linecap="butt" d="m49.065617 180.16536l170.33072 0l0 91.37007l-170.33072 0z" fill-rule="evenodd"/><path fill="#000000" d="m79.97894 210.12976l0 5.03125l0.25 0q1.171875 0 1.703125 -0.734375q0.53125 -0.75 0.671875 -2.1875l0.34375 0l0 6.46875l-0.34375 0q-0.109375 -1.0625 -0.46875 -1.734375q-0.34375 -0.671875 -0.8125 -0.90625q-0.453125 -0.234375 -1.34375 -0.234375l0 3.484375q0 1.015625 0.078125 1.25q0.09375 0.234375 0.328125 0.375q0.25 0.140625 0.78125 0.140625l0.734375 0q1.734375 0 2.765625 -0.796875q1.046875 -0.796875 1.5 -2.4375l0.34375 0l-0.5625 3.921875l-10.671875 0l0 -0.34375l0.40625 0q0.546875 0 0.875 -0.1875q0.234375 -0.125 0.359375 -0.4375q0.09375 -0.21875 0.09375 -1.140625l0 -8.125q0 -0.84375 -0.046875 -1.03125q-0.078125 -0.328125 -0.328125 -0.5q-0.34375 -0.25 -0.953125 -0.25l-0.40625 0l0 -0.34375l10.34375 0l0 3.65625l-0.359375 0q-0.25 -1.328125 -0.734375 -1.90625q-0.484375 -0.59375 -1.359375 -0.875q-0.5 -0.15625 -1.90625 -0.15625l-1.28125 0zm13.037323 6.421875l1.46875 2.8125q0.765625 1.453125 1.21875 1.84375q0.234375 0.21875 0.671875 0.234375l0 0.328125l-4.75 0l0 -0.328125q0.5625 -0.046875 0.6875 -0.140625q0.125 -0.109375 0.125 -0.28125q0 -0.25 -0.28125 -0.796875l-0.734375 -1.390625l-0.640625 0.921875q-0.421875 0.625 -0.484375 0.75q-0.0625 0.171875 -0.0625 0.3125q0 0.203125 0.078125 0.34375q0.09375 0.140625 0.234375 0.21875q0.15625 0.0625 0.5625 0.0625l0 0.328125l-3.34375 0l0 -0.328125q0.625 0 1.140625 -0.34375q0.515625 -0.34375 1.5 -1.78125l0.703125 -1.046875l-1.46875 -2.71875q-0.71875 -1.328125 -1.078125 -1.625q-0.359375 -0.296875 -0.796875 -0.34375l0 -0.328125l4.71875 0l0 0.328125l-0.234375 0.015625l-0.484375 0.171875q-0.0625 0.0625 -0.0625 0.203125q0 0.140625 0.046875 0.28125q0.015625 0.0625 0.25 0.5l0.65625 1.234375l0.359375 -0.5q0.71875 -1.0 0.71875 -1.390625q0 -0.203125 -0.15625 -0.328125q-0.15625 -0.140625 -0.5625 -0.1875l0 -0.328125l3.015625 0l0 0.328125q-0.5625 0.03125 -1.046875 0.359375q-0.484375 0.3125 -1.078125 1.234375l-0.890625 1.375zm7.578125 4.359375l0 3.171875q0 0.640625 0.109375 0.875q0.109375 0.25 0.328125 0.359375q0.21875 0.109375 0.84375 0.109375l0 0.328125l-4.84375 0l0 -0.328125q0.5625 -0.015625 0.828125 -0.328125q0.1875 -0.203125 0.1875 -1.078125l0 -8.984375q0 -0.90625 -0.21875 -1.15625q-0.203125 -0.25 -0.796875 -0.296875l0 -0.328125l3.5625 0l0 1.125q0.453125 -0.65625 0.921875 -0.953125q0.65625 -0.421875 1.4375 -0.421875q0.9375 0 1.703125 0.59375q0.78125 0.578125 1.171875 1.625q0.40625 1.046875 0.40625 2.25q0 1.296875 -0.421875 2.375q-0.40625 1.0625 -1.203125 1.625q-0.78125 0.546875 -1.75 0.546875q-0.6875 0 -1.3125 -0.296875q-0.453125 -0.25 -0.953125 -0.8125zm0 -0.921875q0.78125 1.109375 1.6875 1.109375q0.484375 0 0.796875 -0.515625q0.484375 -0.765625 0.484375 -2.921875q0 -2.203125 -0.515625 -3.015625q-0.359375 -0.53125 -0.9375 -0.53125q-0.921875 0 -1.515625 1.328125l0 4.546875zm14.297592 -2.78125l-4.671875 0q0.078125 1.6875 0.90625 2.671875q0.625 0.765625 1.5 0.765625q0.546875 0 0.984375 -0.296875q0.453125 -0.3125 0.96875 -1.109375l0.3125 0.203125q-0.6875 1.40625 -1.53125 2.0q-0.84375 0.578125 -1.9375 0.578125q-1.890625 0 -2.875 -1.453125q-0.78125 -1.171875 -0.78125 -2.921875q0 -2.125 1.15625 -3.375q1.15625 -1.265625 2.703125 -1.265625q1.28125 0 2.234375 1.0625q0.953125 1.046875 1.03125 3.140625zm-2.234375 -0.609375q0 -1.46875 -0.171875 -2.015625q-0.15625 -0.546875 -0.484375 -0.828125q-0.203125 -0.171875 -0.515625 -0.171875q-0.46875 0 -0.78125 0.46875q-0.53125 0.8125 -0.53125 2.21875l0 0.328125l2.484375 0zm6.827408 -3.34375l0 1.921875q0.859375 -1.3125 1.484375 -1.734375q0.640625 -0.4375 1.234375 -0.4375q0.515625 0 0.8125 0.3125q0.3125 0.3125 0.3125 0.890625q0 0.609375 -0.296875 0.953125q-0.296875 0.328125 -0.71875 0.328125q-0.484375 0 -0.84375 -0.3125q-0.34375 -0.3125 -0.40625 -0.34375q-0.09375 -0.0625 -0.21875 -0.0625q-0.265625 0 -0.5 0.203125q-0.375 0.3125 -0.5625 0.890625q-0.296875 0.875 -0.296875 1.9375l0 1.96875l0.015625 0.5q0 0.53125 0.0625 0.671875q0.109375 0.25 0.3125 0.359375q0.21875 0.109375 0.734375 0.140625l0 0.328125l-4.59375 0l0 -0.328125q0.546875 -0.046875 0.734375 -0.296875q0.203125 -0.265625 0.203125 -1.375l0 -4.71875q0 -0.71875 -0.0625 -0.921875q-0.09375 -0.25 -0.265625 -0.375q-0.171875 -0.125 -0.609375 -0.171875l0 -0.328125l3.46875 0zm6.796158 -4.125q0.59375 0 1.0 0.421875q0.421875 0.40625 0.421875 0.984375q0 0.578125 -0.421875 1.0q-0.40625 0.40625 -1.0 0.40625q-0.578125 0 -0.984375 -0.40625q-0.40625 -0.421875 -0.40625 -1.0q0 -0.578125 0.40625 -0.984375q0.40625 -0.421875 0.984375 -0.421875zm1.28125 4.125l0 6.75q0 0.90625 0.203125 1.15625q0.21875 0.25 0.828125 0.28125l0 0.328125l-4.609375 0l0 -0.328125q0.578125 -0.015625 0.84375 -0.328125q0.1875 -0.203125 0.1875 -1.109375l0 -4.96875q0 -0.90625 -0.21875 -1.15625q-0.203125 -0.25 -0.8125 -0.296875l0 -0.328125l3.578125 0zm9.073929 3.953125l-4.671875 0q0.078125 1.6875 0.90625 2.671875q0.625 0.765625 1.5 0.765625q0.546875 0 0.984375 -0.296875q0.453125 -0.3125 0.96875 -1.109375l0.3125 0.203125q-0.6875 1.40625 -1.53125 2.0q-0.84375 0.578125 -1.9375 0.578125q-1.890625 0 -2.875 -1.453125q-0.78125 -1.171875 -0.78125 -2.921875q0 -2.125 1.15625 -3.375q1.15625 -1.265625 2.703125 -1.265625q1.28125 0 2.234375 1.0625q0.953125 1.046875 1.03125 3.140625zm-2.234375 -0.609375q0 -1.46875 -0.171875 -2.015625q-0.15625 -0.546875 -0.484375 -0.828125q-0.203125 -0.171875 -0.515625 -0.171875q-0.46875 0 -0.78125 0.46875q-0.53125 0.8125 -0.53125 2.21875l0 0.328125l2.484375 0zm6.780533 -3.34375l0 1.09375q0.65625 -0.703125 1.25 -1.015625q0.609375 -0.328125 1.296875 -0.328125q0.828125 0 1.375 0.453125q0.546875 0.453125 0.734375 1.140625q0.140625 0.515625 0.140625 2.0l0 3.3125q0 0.984375 0.171875 1.234375q0.1875 0.234375 0.75 0.296875l0 0.328125l-4.3125 0l0 -0.328125q0.484375 -0.0625 0.703125 -0.40625q0.140625 -0.21875 0.140625 -1.125l0 -3.78125q0 -1.0625 -0.09375 -1.328125q-0.078125 -0.265625 -0.28125 -0.421875q-0.1875 -0.15625 -0.421875 -0.15625q-0.78125 0 -1.453125 1.125l0 4.5625q0 0.953125 0.171875 1.21875q0.1875 0.25 0.671875 0.3125l0 0.328125l-4.3125 0l0 -0.328125q0.53125 -0.046875 0.765625 -0.34375q0.15625 -0.203125 0.15625 -1.1875l0 -4.8125q0 -0.96875 -0.1875 -1.203125q-0.171875 -0.234375 -0.734375 -0.3125l0 -0.328125l3.46875 0zm13.844467 6.3125l0.28125 0.21875q-0.59375 1.140625 -1.5 1.6875q-0.890625 0.546875 -1.90625 0.546875q-1.703125 0 -2.734375 -1.28125q-1.015625 -1.28125 -1.015625 -3.09375q0 -1.734375 0.9375 -3.046875q1.125 -1.59375 3.09375 -1.59375q1.3125 0 2.09375 0.671875q0.78125 0.65625 0.78125 1.46875q0 0.515625 -0.3125 0.828125q-0.3125 0.3125 -0.828125 0.3125q-0.53125 0 -0.890625 -0.34375q-0.34375 -0.359375 -0.4375 -1.28125q-0.046875 -0.5625 -0.265625 -0.796875q-0.203125 -0.234375 -0.484375 -0.234375q-0.4375 0 -0.75 0.46875q-0.46875 0.703125 -0.46875 2.15625q0 1.203125 0.375 2.296875q0.390625 1.09375 1.046875 1.640625q0.5 0.390625 1.1875 0.390625q0.453125 0 0.84375 -0.203125q0.40625 -0.21875 0.953125 -0.8125zm3.3742828 -10.4375q0.59375 0 1.0 0.421875q0.421875 0.40625 0.421875 0.984375q0 0.578125 -0.421875 1.0q-0.40625 0.40625 -1.0 0.40625q-0.578125 0 -0.984375 -0.40625q-0.40625 -0.421875 -0.40625 -1.0q0 -0.578125 0.40625 -0.984375q0.40625 -0.421875 0.984375 -0.421875zm1.28125 4.125l0 6.75q0 0.90625 0.203125 1.15625q0.21875 0.25 0.828125 0.28125l0 0.328125l-4.609375 0l0 -0.328125q0.578125 -0.015625 0.84375 -0.328125q0.1875 -0.203125 0.1875 -1.109375l0 -4.96875q0 -0.90625 -0.21875 -1.15625q-0.203125 -0.25 -0.8125 -0.296875l0 -0.328125l3.578125 0zm6.558304 7.265625q-1.5625 1.375 -2.796875 1.375q-0.734375 0 -1.21875 -0.484375q-0.46875 -0.484375 -0.46875 -1.203125q0 -0.96875 0.828125 -1.75q0.84375 -0.78125 3.65625 -2.078125l0 -0.84375q0 -0.96875 -0.109375 -1.21875q-0.09375 -0.25 -0.390625 -0.4375q-0.296875 -0.1875 -0.65625 -0.1875q-0.59375 0 -0.96875 0.265625q-0.25 0.15625 -0.25 0.375q0 0.203125 0.265625 0.484375q0.34375 0.390625 0.34375 0.75q0 0.453125 -0.34375 0.765625q-0.328125 0.3125 -0.859375 0.3125q-0.578125 0 -0.96875 -0.34375q-0.375 -0.359375 -0.375 -0.8125q0 -0.65625 0.515625 -1.25q0.515625 -0.609375 1.4375 -0.921875q0.9375 -0.3125 1.9375 -0.3125q1.21875 0 1.921875 0.515625q0.703125 0.5 0.921875 1.109375q0.125 0.375 0.125 1.75l0 3.3125q0 0.578125 0.046875 0.734375q0.046875 0.15625 0.125 0.234375q0.09375 0.0625 0.21875 0.0625q0.234375 0 0.484375 -0.34375l0.265625 0.21875q-0.453125 0.6875 -0.9375 1.0q-0.484375 0.296875 -1.109375 0.296875q-0.734375 0 -1.140625 -0.34375q-0.40625 -0.34375 -0.5 -1.03125zm0 -0.671875l0 -2.84375q-1.09375 0.640625 -1.640625 1.375q-0.359375 0.5 -0.359375 1.0q0 0.40625 0.3125 0.734375q0.21875 0.25 0.625 0.25q0.46875 0 1.0625 -0.515625zm17.570312 -10.4375l0 9.8125q0 0.984375 0.0625 1.171875q0.0625 0.296875 0.265625 0.453125q0.21875 0.140625 0.71875 0.171875l0 0.296875l-3.59375 0.703125l0 -1.34375q-0.640625 0.78125 -1.15625 1.0625q-0.5 0.28125 -1.140625 0.28125q-1.625 0 -2.578125 -1.453125q-0.765625 -1.1875 -0.765625 -2.90625q0 -1.375 0.46875 -2.453125q0.484375 -1.09375 1.296875 -1.640625q0.828125 -0.5625 1.78125 -0.5625q0.609375 0 1.078125 0.234375q0.484375 0.234375 1.015625 0.828125l0 -2.578125q0 -0.96875 -0.078125 -1.171875q-0.109375 -0.265625 -0.328125 -0.390625q-0.21875 -0.125 -0.828125 -0.125l0 -0.390625l3.78125 0zm-2.546875 5.78125q-0.671875 -1.296875 -1.65625 -1.296875q-0.328125 0 -0.546875 0.1875q-0.34375 0.28125 -0.5625 1.0q-0.203125 0.703125 -0.203125 2.171875q0 1.609375 0.234375 2.390625q0.234375 0.765625 0.640625 1.109375q0.21875 0.171875 0.578125 0.171875q0.796875 0 1.515625 -1.25l0 -4.484375zm11.860077 2.015625l-4.671875 0q0.078125 1.6875 0.90625 2.671875q0.625 0.765625 1.5 0.765625q0.546875 0 0.984375 -0.296875q0.453125 -0.3125 0.96875 -1.109375l0.3125 0.203125q-0.6875 1.40625 -1.53125 2.0q-0.84375 0.578125 -1.9375 0.578125q-1.890625 0 -2.875 -1.453125q-0.78125 -1.171875 -0.78125 -2.921875q0 -2.125 1.15625 -3.375q1.15625 -1.265625 2.703125 -1.265625q1.28125 0 2.234375 1.0625q0.953125 1.046875 1.03125 3.140625zm-2.234375 -0.609375q0 -1.46875 -0.171875 -2.015625q-0.15625 -0.546875 -0.484375 -0.828125q-0.203125 -0.171875 -0.515625 -0.171875q-0.46875 0 -0.78125 0.46875q-0.53125 0.8125 -0.53125 2.21875l0 0.328125l2.484375 0z" fill-rule="nonzero"/><path fill="#000000" d="m107.71477 237.83289l0 3.828125q0 0.9375 0.109375 1.1875q0.109375 0.234375 0.40625 0.40625q0.3125 0.171875 0.828125 0.171875l0.40625 0l0 0.34375l-6.453125 0l0 -0.34375l0.40625 0q0.546875 0 0.875 -0.1875q0.234375 -0.125 0.359375 -0.4375q0.09375 -0.21875 0.09375 -1.140625l0 -8.125q0 -0.953125 -0.09375 -1.1875q-0.09375 -0.234375 -0.40625 -0.40625q-0.296875 -0.1875 -0.828125 -0.1875l-0.40625 0l0 -0.34375l6.453125 0l0 0.34375l-0.40625 0q-0.53125 0 -0.859375 0.1875q-0.234375 0.125 -0.375 0.4375q-0.109375 0.21875 -0.109375 1.15625l0 3.5l4.375 0l0 -3.5q0 -0.953125 -0.109375 -1.1875q-0.09375 -0.234375 -0.40625 -0.40625q-0.3125 -0.1875 -0.828125 -0.1875l-0.40625 0l0 -0.34375l6.453125 0l0 0.34375l-0.390625 0q-0.546875 0 -0.875 0.1875q-0.234375 0.125 -0.375 0.4375q-0.09375 0.21875 -0.09375 1.15625l0 8.125q0 0.9375 0.09375 1.1875q0.109375 0.234375 0.40625 0.40625q0.3125 0.171875 0.84375 0.171875l0.390625 0l0 0.34375l-6.453125 0l0 -0.34375l0.40625 0q0.546875 0 0.859375 -0.1875q0.25 -0.125 0.375 -0.4375q0.109375 -0.21875 0.109375 -1.140625l0 -3.828125l-4.375 0zm14.745804 4.6875q-1.5625 1.375 -2.796875 1.375q-0.734375 0 -1.21875 -0.484375q-0.46875 -0.484375 -0.46875 -1.203125q0 -0.96875 0.828125 -1.75q0.84375 -0.78125 3.65625 -2.078125l0 -0.84375q0 -0.96875 -0.109375 -1.21875q-0.09375 -0.25 -0.390625 -0.4375q-0.296875 -0.1875 -0.65625 -0.1875q-0.59375 0 -0.96875 0.265625q-0.25 0.15625 -0.25 0.375q0 0.203125 0.265625 0.484375q0.34375 0.390625 0.34375 0.75q0 0.453125 -0.34375 0.765625q-0.328125 0.3125 -0.859375 0.3125q-0.578125 0 -0.96875 -0.34375q-0.375 -0.359375 -0.375 -0.8125q0 -0.65625 0.515625 -1.25q0.515625 -0.609375 1.4375 -0.921875q0.9375 -0.3125 1.9375 -0.3125q1.21875 0 1.921875 0.515625q0.703125 0.5 0.921875 1.109375q0.125 0.375 0.125 1.75l0 3.3125q0 0.578125 0.046875 0.734375q0.046875 0.15625 0.125 0.234375q0.09375 0.0625 0.21875 0.0625q0.234375 0 0.484375 -0.34375l0.265625 0.21875q-0.453125 0.6875 -0.9375 1.0q-0.484375 0.296875 -1.109375 0.296875q-0.734375 0 -1.140625 -0.34375q-0.40625 -0.34375 -0.5 -1.03125zm0 -0.671875l0 -2.84375q-1.09375 0.640625 -1.640625 1.375q-0.359375 0.5 -0.359375 1.0q0 0.40625 0.3125 0.734375q0.21875 0.25 0.625 0.25q0.46875 0 1.0625 -0.515625zm7.921875 -10.4375l0 4.703125q1.078125 -1.109375 2.359375 -1.109375q0.875 0 1.640625 0.515625q0.78125 0.5 1.21875 1.453125q0.4375 0.953125 0.4375 2.1875q0 1.390625 -0.5625 2.53125q-0.546875 1.140625 -1.484375 1.734375q-0.921875 0.59375 -2.125 0.59375q-0.6875 0 -1.234375 -0.21875q-0.53125 -0.21875 -1.046875 -0.703125l-1.40625 0.921875l-0.3125 0l0 -10.828125q0 -0.75 -0.0625 -0.921875q-0.09375 -0.25 -0.296875 -0.375q-0.1875 -0.125 -0.65625 -0.140625l0 -0.34375l3.53125 0zm0 5.515625l0 3.78125q0 1.15625 0.0625 1.484375q0.09375 0.53125 0.4375 0.875q0.34375 0.328125 0.875 0.328125q0.46875 0 0.796875 -0.265625q0.34375 -0.265625 0.5625 -1.046875q0.21875 -0.796875 0.21875 -2.828125q0 -1.96875 -0.484375 -2.6875q-0.359375 -0.53125 -0.96875 -0.53125q-0.78125 0 -1.5 0.890625zm9.125717 -5.796875q0.59375 0 1.0 0.421875q0.421875 0.40625 0.421875 0.984375q0 0.578125 -0.421875 1.0q-0.40625 0.40625 -1.0 0.40625q-0.578125 0 -0.984375 -0.40625q-0.40625 -0.421875 -0.40625 -1.0q0 -0.578125 0.40625 -0.984375q0.40625 -0.421875 0.984375 -0.421875zm1.28125 4.125l0 6.75q0 0.90625 0.203125 1.15625q0.21875 0.25 0.828125 0.28125l0 0.328125l-4.609375 0l0 -0.328125q0.578125 -0.015625 0.84375 -0.328125q0.1875 -0.203125 0.1875 -1.109375l0 -4.96875q0 -0.90625 -0.21875 -1.15625q-0.203125 -0.25 -0.8125 -0.296875l0 -0.328125l3.578125 0zm5.245804 -3.125l0 3.125l2.015625 0l0 0.90625l-2.015625 0l0 5.25q0 0.734375 0.0625 0.953125q0.0625 0.21875 0.234375 0.359375q0.171875 0.125 0.328125 0.125q0.59375 0 1.109375 -0.90625l0.28125 0.203125q-0.734375 1.75 -2.390625 1.75q-0.8125 0 -1.375 -0.453125q-0.5625 -0.453125 -0.71875 -1.015625q-0.09375 -0.3125 -0.09375 -1.671875l0 -4.59375l-1.109375 0l0 -0.328125q1.15625 -0.8125 1.953125 -1.703125q0.8125 -0.890625 1.40625 -2.0l0.3125 0zm7.525177 10.390625q-1.5625 1.375 -2.796875 1.375q-0.734375 0 -1.21875 -0.484375q-0.46875 -0.484375 -0.46875 -1.203125q0 -0.96875 0.828125 -1.75q0.84375 -0.78125 3.65625 -2.078125l0 -0.84375q0 -0.96875 -0.109375 -1.21875q-0.09375 -0.25 -0.390625 -0.4375q-0.296875 -0.1875 -0.65625 -0.1875q-0.59375 0 -0.96875 0.265625q-0.25 0.15625 -0.25 0.375q0 0.203125 0.265625 0.484375q0.34375 0.390625 0.34375 0.75q0 0.453125 -0.34375 0.765625q-0.328125 0.3125 -0.859375 0.3125q-0.578125 0 -0.96875 -0.34375q-0.375 -0.359375 -0.375 -0.8125q0 -0.65625 0.515625 -1.25q0.515625 -0.609375 1.4375 -0.921875q0.9375 -0.3125 1.9375 -0.3125q1.21875 0 1.921875 0.515625q0.703125 0.5 0.921875 1.109375q0.125 0.375 0.125 1.75l0 3.3125q0 0.578125 0.046875 0.734375q0.046875 0.15625 0.125 0.234375q0.09375 0.0625 0.21875 0.0625q0.234375 0 0.484375 -0.34375l0.265625 0.21875q-0.453125 0.6875 -0.9375 1.0q-0.484375 0.296875 -1.109375 0.296875q-0.734375 0 -1.140625 -0.34375q-0.40625 -0.34375 -0.5 -1.03125zm0 -0.671875l0 -2.84375q-1.09375 0.640625 -1.640625 1.375q-0.359375 0.5 -0.359375 1.0q0 0.40625 0.3125 0.734375q0.21875 0.25 0.625 0.25q0.46875 0 1.0625 -0.515625zm8.15625 -6.59375l0 1.921875q0.859375 -1.3125 1.484375 -1.734375q0.640625 -0.4375 1.234375 -0.4375q0.515625 0 0.8125 0.3125q0.3125 0.3125 0.3125 0.890625q0 0.609375 -0.296875 0.953125q-0.296875 0.328125 -0.71875 0.328125q-0.484375 0 -0.84375 -0.3125q-0.34375 -0.3125 -0.40625 -0.34375q-0.09375 -0.0625 -0.21875 -0.0625q-0.265625 0 -0.5 0.203125q-0.375 0.3125 -0.5625 0.890625q-0.296875 0.875 -0.296875 1.9375l0 1.96875l0.015625 0.5q0 0.53125 0.0625 0.671875q0.109375 0.25 0.3125 0.359375q0.21875 0.109375 0.734375 0.140625l0 0.328125l-4.59375 0l0 -0.328125q0.546875 -0.046875 0.734375 -0.296875q0.203125 -0.265625 0.203125 -1.375l0 -4.71875q0 -0.71875 -0.0625 -0.921875q-0.09375 -0.25 -0.265625 -0.375q-0.171875 -0.125 -0.609375 -0.171875l0 -0.328125l3.46875 0z" fill-rule="nonzero"/><path fill="#000000" fill-opacity="0.0" d="m307.34384 113.74541l50.11023 0l0 38.771652l-50.11023 0z" fill-rule="evenodd"/><path fill="#000000" d="m321.3126 141.24603l0 0.28125q-1.171875 -0.59375 -1.96875 -1.390625q-1.125 -1.125 -1.734375 -2.671875q-0.609375 -1.546875 -0.609375 -3.203125q0 -2.421875 1.1875 -4.40625q1.203125 -2.0 3.125 -2.859375l0 0.328125q-0.953125 0.53125 -1.578125 1.453125q-0.609375 0.921875 -0.921875 2.34375q-0.296875 1.40625 -0.296875 2.9375q0 1.671875 0.25 3.046875q0.203125 1.078125 0.484375 1.734375q0.296875 0.65625 0.78125 1.25q0.5 0.609375 1.28125 1.15625zm3.65625 -8.828125l4.921875 0l0 -3.03125q0 -0.8125 -0.109375 -1.0625q-0.078125 -0.203125 -0.328125 -0.34375q-0.328125 -0.1875 -0.703125 -0.1875l-0.375 0l0 -0.28125l4.53125 0l0 0.28125l-0.375 0q-0.375 0 -0.71875 0.1875q-0.25 0.125 -0.34375 0.375q-0.078125 0.25 -0.078125 1.03125l0 6.84375q0 0.796875 0.09375 1.0625q0.078125 0.1875 0.328125 0.328125q0.34375 0.1875 0.71875 0.1875l0.375 0l0 0.296875l-4.53125 0l0 -0.296875l0.375 0q0.640625 0 0.9375 -0.375q0.203125 -0.25 0.203125 -1.203125l0 -3.234375l-4.921875 0l0 3.234375q0 0.796875 0.09375 1.0625q0.078125 0.1875 0.328125 0.328125q0.34375 0.1875 0.71875 0.1875l0.375 0l0 0.296875l-4.53125 0l0 -0.296875l0.375 0q0.65625 0 0.953125 -0.375q0.1875 -0.25 0.1875 -1.203125l0 -6.84375q0 -0.8125 -0.109375 -1.0625q-0.078125 -0.203125 -0.3125 -0.34375q-0.34375 -0.1875 -0.71875 -0.1875l-0.375 0l0 -0.28125l4.53125 0l0 0.28125l-0.375 0q-0.375 0 -0.71875 0.1875q-0.234375 0.125 -0.328125 0.375q-0.09375 0.25 -0.09375 1.03125l0 3.03125zm15.6015625 3.640625l-0.75 2.046875l-6.25 0l0 -0.296875q2.765625 -2.515625 3.890625 -4.109375q1.125 -1.59375 1.125 -2.90625q0 -1.015625 -0.625 -1.65625q-0.609375 -0.65625 -1.46875 -0.65625q-0.78125 0 -1.40625 0.46875q-0.625 0.453125 -0.921875 1.328125l-0.28125 0q0.1875 -1.4375 1.0 -2.203125q0.8125 -0.78125 2.015625 -0.78125q1.296875 0 2.15625 0.828125q0.859375 0.828125 0.859375 1.953125q0 0.796875 -0.375 1.609375q-0.578125 1.265625 -1.875 2.671875q-1.9375 2.125 -2.421875 2.5625l2.765625 0q0.84375 0 1.171875 -0.0625q0.34375 -0.0625 0.609375 -0.25q0.28125 -0.1875 0.484375 -0.546875l0.296875 0zm1.015625 -8.734375l0 -0.328125q1.1875 0.578125 1.984375 1.375q1.109375 1.140625 1.71875 2.6875q0.609375 1.53125 0.609375 3.1875q0 2.421875 -1.1875 4.421875q-1.1875 2.0 -3.125 2.859375l0 -0.28125q0.96875 -0.546875 1.578125 -1.46875q0.625 -0.90625 0.921875 -2.328125q0.3125 -1.421875 0.3125 -2.96875q0 -1.65625 -0.265625 -3.03125q-0.1875 -1.078125 -0.484375 -1.71875q-0.296875 -0.65625 -0.78125 -1.25q-0.484375 -0.609375 -1.28125 -1.15625z" fill-rule="nonzero"/><path fill="#000000" fill-opacity="0.0" d="m227.92389 144.24934l50.11023 0l0 38.771652l-50.11023 0z" fill-rule="evenodd"/><path fill="#000000" d="m241.89264 171.74997l0 0.28125q-1.171875 -0.59375 -1.96875 -1.390625q-1.125 -1.125 -1.734375 -2.671875q-0.609375 -1.546875 -0.609375 -3.203125q0 -2.421875 1.1875 -4.40625q1.203125 -2.0 3.125 -2.859375l0 0.328125q-0.953125 0.53125 -1.578125 1.453125q-0.609375 0.921875 -0.921875 2.34375q-0.296875 1.40625 -0.296875 2.9375q0 1.671875 0.25 3.046875q0.203125 1.078125 0.484375 1.734375q0.296875 0.65625 0.78125 1.25q0.5 0.609375 1.28125 1.15625zm3.65625 -8.828125l4.921875 0l0 -3.03125q0 -0.8125 -0.109375 -1.0625q-0.078125 -0.203125 -0.328125 -0.34375q-0.328125 -0.1875 -0.703125 -0.1875l-0.375 0l0 -0.28125l4.53125 0l0 0.28125l-0.375 0q-0.375 0 -0.71875 0.1875q-0.25 0.125 -0.34375 0.375q-0.078125 0.25 -0.078125 1.03125l0 6.84375q0 0.796875 0.09375 1.0625q0.078125 0.1875 0.328125 0.328125q0.34375 0.1875 0.71875 0.1875l0.375 0l0 0.296875l-4.53125 0l0 -0.296875l0.375 0q0.640625 0 0.9375 -0.375q0.203125 -0.25 0.203125 -1.203125l0 -3.234375l-4.921875 0l0 3.234375q0 0.796875 0.09375 1.0625q0.078125 0.1875 0.328125 0.328125q0.34375 0.1875 0.71875 0.1875l0.375 0l0 0.296875l-4.53125 0l0 -0.296875l0.375 0q0.65625 0 0.953125 -0.375q0.1875 -0.25 0.1875 -1.203125l0 -6.84375q0 -0.8125 -0.109375 -1.0625q-0.078125 -0.203125 -0.3125 -0.34375q-0.34375 -0.1875 -0.71875 -0.1875l-0.375 0l0 -0.28125l4.53125 0l0 0.28125l-0.375 0q-0.375 0 -0.71875 0.1875q-0.234375 0.125 -0.328125 0.375q-0.09375 0.25 -0.09375 1.03125l0 3.03125zm9.0703125 -2.890625q0.453125 -1.078125 1.140625 -1.65625q0.703125 -0.578125 1.734375 -0.578125q1.265625 0 1.953125 0.828125q0.515625 0.609375 0.515625 1.3125q0 1.15625 -1.453125 2.390625q0.96875 0.390625 1.46875 1.109375q0.5 0.703125 0.5 1.65625q0 1.375 -0.875 2.390625q-1.140625 1.3125 -3.296875 1.3125q-1.078125 0 -1.46875 -0.265625q-0.375 -0.265625 -0.375 -0.578125q0 -0.21875 0.171875 -0.390625q0.1875 -0.171875 0.453125 -0.171875q0.1875 0 0.390625 0.0625q0.140625 0.03125 0.609375 0.28125q0.46875 0.25 0.640625 0.296875q0.296875 0.078125 0.625 0.078125q0.796875 0 1.375 -0.609375q0.59375 -0.625 0.59375 -1.46875q0 -0.609375 -0.265625 -1.203125q-0.203125 -0.4375 -0.453125 -0.65625q-0.328125 -0.3125 -0.921875 -0.5625q-0.578125 -0.265625 -1.1875 -0.265625l-0.25 0l0 -0.234375q0.609375 -0.078125 1.234375 -0.4375q0.625 -0.375 0.90625 -0.890625q0.28125 -0.515625 0.28125 -1.125q0 -0.8125 -0.515625 -1.296875q-0.5 -0.5 -1.25 -0.5q-1.203125 0 -2.015625 1.296875l-0.265625 -0.125zm7.546875 -2.203125l0 -0.328125q1.1875 0.578125 1.984375 1.375q1.109375 1.140625 1.71875 2.6875q0.609375 1.53125 0.609375 3.1875q0 2.421875 -1.1875 4.421875q-1.1875 2.0 -3.125 2.859375l0 -0.28125q0.96875 -0.546875 1.578125 -1.46875q0.625 -0.90625 0.921875 -2.328125q0.3125 -1.421875 0.3125 -2.96875q0 -1.65625 -0.265625 -3.03125q-0.1875 -1.078125 -0.484375 -1.71875q-0.296875 -0.65625 -0.78125 -1.25q-0.484375 -0.609375 -1.28125 -1.15625z" fill-rule="nonzero"/></g></svg>